<svg width="22" height="20" viewBox="0 0 22 20" fill="none" xmlns="http://www.w3.org/2000/svg">
<path d="M18.8149 7.659C18.1454 7.659 17.5562 7.93573 17.1233 8.36867C15.5299 7.26623 13.383 6.55657 11.0041 6.4807L12.2404 0.910511L16.1771 1.79424C16.1771 2.75831 16.9626 3.54385 17.9267 3.54385C18.9086 3.54385 19.6986 2.736 19.6986 1.77193C19.6986 0.807855 18.9131 0 17.9267 0C17.2393 0 16.6457 0.415086 16.3511 0.981924L12.0039 0.0178531C11.7852 -0.0401696 11.571 0.116046 11.5129 0.334747L10.1561 6.47623C7.79501 6.57443 5.67048 7.28409 4.07263 8.38652C3.63969 7.93573 3.02822 7.659 2.35872 7.659C-0.122867 7.659 -0.935185 10.9886 1.33663 12.1268C1.25629 12.4794 1.22058 12.8543 1.22058 13.2292C1.22058 16.9694 5.43393 20 10.6069 20C15.8021 20 20.0155 16.9694 20.0155 13.2292C20.0155 12.8543 19.9753 12.4615 19.8771 12.1089C22.1043 10.9663 21.2831 7.659 18.8149 7.659ZM4.9385 12.3633C4.9385 11.3814 5.72404 10.5914 6.71043 10.5914C7.6745 10.5914 8.46004 11.3769 8.46004 12.3633C8.46004 13.3274 7.6745 14.1129 6.71043 14.1129C5.72851 14.1174 4.9385 13.3274 4.9385 12.3633ZM14.5033 16.5365C12.8787 18.1611 8.2949 18.1611 6.67026 16.5365C6.49173 16.3803 6.49173 16.1035 6.67026 15.925C6.82647 15.7688 7.1032 15.7688 7.25941 15.925C8.50021 17.1971 12.6154 17.2194 13.9097 15.925C14.0659 15.7688 14.3427 15.7688 14.4989 15.925C14.6819 16.1035 14.6819 16.3803 14.5033 16.5365ZM14.4676 14.1174C13.5036 14.1174 12.718 13.3318 12.718 12.3678C12.718 11.3859 13.5036 10.5958 14.4676 10.5958C15.4495 10.5958 16.2396 11.3814 16.2396 12.3678C16.2351 13.3274 15.4495 14.1174 14.4676 14.1174Z" fill="white"/>
</svg>
