<?xml version="1.0" standalone="no"?>
<!DOCTYPE svg PUBLIC "-//W3C//DTD SVG 20010904//EN"
 "http://www.w3.org/TR/2001/REC-SVG-20010904/DTD/svg10.dtd">
<svg version="1.0" xmlns="http://www.w3.org/2000/svg"
 width="500.000000pt" height="500.000000pt" viewBox="0 0 500.000000 500.000000"
 preserveAspectRatio="xMidYMid meet">

<g transform="translate(0.000000,500.000000) scale(0.100000,-0.100000)"
fill="#FFF" stroke="none">
<path d="M2225 4984 c-201 -30 -427 -83 -566 -134 -46 -17 -160 -68 -254 -114
-491 -241 -896 -647 -1140 -1140 -98 -199 -132 -288 -179 -469 -66 -253 -71
-301 -71 -627 0 -328 4 -362 75 -635 48 -189 83 -279 185 -480 208 -412 530
-761 940 -1022 71 -45 345 -176 444 -213 273 -100 656 -159 936 -145 244 13
546 73 745 148 490 185 911 513 1214 946 104 149 243 415 296 566 50 143 98
339 122 490 27 182 30 491 4 670 -55 393 -201 769 -413 1069 -37 54 -75 108
-84 121 -41 64 -231 264 -337 356 -193 168 -335 262 -567 375 -185 90 -278
125 -454 168 -250 63 -292 68 -591 71 -151 2 -288 1 -305 -1z m430 -424 c137
-11 231 -28 395 -72 146 -38 249 -81 425 -174 411 -219 744 -584 929 -1018 58
-136 93 -251 125 -411 131 -653 -88 -1355 -574 -1840 -242 -242 -563 -437
-865 -524 -323 -93 -620 -113 -926 -61 -227 39 -370 86 -590 196 -600 300
-1003 855 -1120 1539 -24 140 -24 472 -1 610 61 352 190 659 389 926 272 365
680 646 1098 757 270 72 470 92 715 72z"/>
<path d="M1729 3128 c-222 -233 -446 -467 -499 -521 -52 -53 -96 -101 -98
-106 -2 -7 552 -594 938 -994 l65 -67 360 2 360 3 -226 230 c-417 425 -524
536 -527 545 -2 6 304 10 827 10 l831 0 0 270 0 270 -831 0 -832 0 54 58 c29
31 179 185 333 342 153 157 299 306 324 333 l45 47 -361 0 -360 0 -403 -422z"/>
</g>
</svg>
