<svg id="svg" xmlns="http://www.w3.org/2000/svg" xmlns:xlink="http://www.w3.org/1999/xlink" width="400" height="400" viewBox="0, 0, 400,400"><g id="svgg"><path id="path0" d="M95.564 76.588 C 73.241 80.600,53.201 100.578,35.246 136.719 C 0.303 207.054,-11.188 297.192,12.057 318.619 C 29.586 334.776,67.287 312.766,107.301 263.016 L 113.371 255.469 200.012 255.469 L 286.652 255.469 291.167 261.133 C 332.803 313.369,372.035 335.960,389.052 317.499 C 407.945 297.003,401.985 227.765,375.542 160.547 C 357.890 115.675,335.567 86.969,311.848 78.641 C 292.072 71.698,262.203 80.570,246.122 98.165 L 242.303 102.344 199.961 102.344 L 157.619 102.344 154.461 98.756 C 141.266 83.766,113.587 73.348,95.564 76.588 M292.999 125.797 C 299.487 129.106,302.566 137.985,299.381 144.198 C 294.317 154.075,283.024 155.860,275.636 147.950 C 264.824 136.375,278.794 118.550,292.999 125.797 M118.576 130.904 C 120.254 132.079,120.313 132.564,120.313 145.357 L 120.313 158.594 132.848 158.594 C 149.358 158.594,149.219 158.486,149.219 171.275 C 149.219 184.170,149.952 183.594,133.549 183.594 L 120.313 183.594 120.313 196.819 C 120.313 213.501,121.104 212.500,107.906 212.500 C 94.154 212.500,94.984 213.475,94.661 196.939 L 94.400 183.594 81.619 183.594 C 65.704 183.594,66.406 184.176,66.406 170.977 C 66.406 158.398,66.145 158.594,82.918 158.594 L 95.313 158.594 95.313 145.357 C 95.313 128.930,94.708 129.688,107.813 129.688 C 114.719 129.688,117.248 129.973,118.576 130.904 M263.389 157.401 C 268.916 161.058,271.403 169.928,268.474 175.538 C 262.136 187.675,244.816 185.777,241.335 172.564 C 238.067 160.165,252.535 150.218,263.389 157.401 M323.212 156.330 C 337.094 163.050,332.554 183.594,317.188 183.594 C 312.450 183.594,309.680 182.303,306.399 178.566 C 296.271 167.031,309.413 149.650,323.212 156.330 M293.875 188.193 C 305.400 195.501,301.319 212.962,287.709 214.574 C 279.605 215.534,272.745 209.704,272.045 201.261 C 271.066 189.447,283.816 181.814,293.875 188.193 " stroke="none" fill="#FFF" fill-rule="evenodd"></path></g></svg>