<svg id="svg" xmlns="http://www.w3.org/2000/svg" xmlns:xlink="http://www.w3.org/1999/xlink" width="400" height="400" viewBox="0, 0, 400,400"><g id="svgg"><path id="path0" d="M240.625 43.367 C 211.461 49.404,190.115 72.632,186.752 101.989 C 186.311 105.837,185.947 117.686,185.944 128.320 L 185.938 147.656 178.477 147.656 C 167.024 147.656,164.063 150.056,164.063 159.336 L 164.063 164.063 126.758 164.067 C 79.952 164.073,72.712 164.989,55.609 173.074 C -17.091 207.437,-19.140 310.304,52.143 347.119 C 95.909 369.724,151.053 355.241,177.344 314.236 L 182.422 306.316 200.000 306.316 L 217.578 306.316 222.656 314.236 C 259.393 371.533,345.633 372.176,383.630 315.437 C 419.144 262.406,395.026 189.696,335.156 169.302 C 321.528 164.660,320.952 164.611,276.758 164.274 L 235.938 163.962 235.910 159.130 C 235.858 150.057,232.894 147.669,221.680 147.661 L 214.063 147.656 214.063 125.532 C 214.063 97.178,215.577 91.546,225.975 81.244 C 237.272 70.053,240.248 69.531,292.842 69.531 L 335.606 69.531 339.047 67.773 C 348.448 62.969,349.110 50.750,340.325 44.189 C 337.558 42.122,250.120 41.402,240.625 43.367 M110.582 216.761 C 112.463 218.642,112.500 218.926,112.500 231.554 L 112.500 244.428 125.762 244.675 C 143.509 245.005,142.578 244.101,142.578 261.027 L 142.578 273.573 140.386 275.458 C 138.261 277.286,137.801 277.344,125.347 277.344 L 112.500 277.344 112.500 290.270 C 112.500 307.744,113.181 307.031,96.484 307.031 C 79.788 307.031,80.469 307.744,80.469 290.270 L 80.469 277.344 68.410 277.344 C 50.506 277.344,50.000 276.897,50.000 261.079 C 50.000 245.026,50.548 244.531,68.321 244.531 L 80.469 244.531 80.469 231.605 C 80.469 214.131,79.788 214.844,96.484 214.844 C 108.375 214.844,108.710 214.889,110.582 216.761 M306.483 216.681 C 311.963 218.970,316.369 226.672,315.333 232.151 C 312.721 245.976,294.496 248.901,288.175 236.511 C 282.226 224.850,294.421 211.641,306.483 216.681 M273.654 246.922 C 275.277 247.373,277.878 248.859,279.435 250.226 C 293.437 262.520,275.107 284.068,260.851 272.073 C 249.172 262.245,259.039 242.863,273.654 246.922 M335.373 246.922 C 351.273 251.337,348.497 275.153,332.063 275.319 C 313.269 275.509,312.870 248.014,331.641 246.179 C 332.070 246.137,333.750 246.471,335.373 246.922 M306.964 278.872 C 320.379 285.716,316.916 304.846,302.039 306.080 C 286.036 307.407,280.570 284.985,295.336 278.581 C 299.086 276.954,303.417 277.062,306.964 278.872 " stroke="none" fill="#FFF" fill-rule="evenodd"></path></g></svg>