<svg width="26" height="20" viewBox="0 0 26 20" fill="none" xmlns="http://www.w3.org/2000/svg">
<path d="M22.0107 1.65906C20.3248 0.878258 18.5458 0.320987 16.7181 0.00113909C16.7015 -0.00167518 16.6845 0.000755409 16.6694 0.00809674C16.6543 0.0154381 16.6418 0.0273296 16.6336 0.0421361C16.4045 0.452106 16.151 0.988347 15.9739 1.40816C14.0037 1.10643 11.9998 1.10643 10.0297 1.40816C9.83209 0.940495 9.60857 0.484433 9.36018 0.0421361C9.35184 0.0274917 9.33931 0.0157372 9.32422 0.00841949C9.30914 0.00110175 9.29222 -0.00143631 9.27568 0.00113909C7.44757 0.319276 5.66821 0.876835 3.98311 1.65906C3.96869 1.66461 3.95663 1.67504 3.94898 1.68858C0.578769 6.77057 -0.345847 11.7279 0.107523 16.623C0.109148 16.6459 0.123773 16.6689 0.141648 16.6836C2.10418 18.1507 4.29931 19.2708 6.63345 19.9962C6.64993 20.0014 6.66764 20.0013 6.68401 19.9957C6.70037 19.99 6.71454 19.9793 6.72445 19.965C7.22495 19.2763 7.67019 18.5498 8.05369 17.7856C8.06168 17.7699 8.06442 17.752 8.06149 17.7345C8.05856 17.7171 8.05013 17.7011 8.03744 17.6889C8.02904 17.6809 8.01908 17.6747 8.00819 17.6708C7.30808 17.3993 6.63003 17.0731 5.98021 16.6951C5.96206 16.6847 5.94856 16.6677 5.94251 16.6476C5.93646 16.6274 5.93832 16.6057 5.94771 16.5869C5.95324 16.5747 5.9616 16.564 5.97209 16.5557C6.10859 16.4524 6.24508 16.3442 6.37508 16.236C6.38657 16.2266 6.40034 16.2206 6.41494 16.2186C6.42954 16.2166 6.44441 16.2186 6.45796 16.2245C10.7138 18.1858 15.3206 18.1858 19.5244 16.2245C19.5385 16.2183 19.5539 16.2162 19.5691 16.2182C19.5842 16.2202 19.5986 16.2264 19.6106 16.236C19.7406 16.3442 19.8771 16.4524 20.0136 16.5557C20.0246 16.5639 20.0335 16.5747 20.0394 16.5872C20.0453 16.5996 20.0481 16.6134 20.0475 16.6272C20.0468 16.641 20.0428 16.6544 20.0357 16.6663C20.0287 16.6781 20.0188 16.688 20.0071 16.6951C19.3587 17.0765 18.6798 17.4024 17.9775 17.6692C17.9663 17.6733 17.9561 17.6798 17.9477 17.6883C17.9392 17.6968 17.9328 17.7071 17.9287 17.7184C17.925 17.7294 17.9234 17.741 17.9243 17.7525C17.9251 17.7641 17.9283 17.7754 17.9336 17.7856C18.3236 18.5482 18.7705 19.2763 19.2612 19.965C19.2711 19.9793 19.2853 19.99 19.3016 19.9957C19.318 20.0013 19.3357 20.0014 19.3522 19.9962C21.6902 19.2731 23.8889 18.1528 25.8538 16.6836C25.8636 16.6768 25.8718 16.6677 25.8777 16.6572C25.8836 16.6467 25.8871 16.635 25.8879 16.623C26.4306 10.9637 24.9795 6.04738 22.0432 1.69022C22.0402 1.68302 22.0358 1.67653 22.0302 1.67116C22.0246 1.66579 22.0179 1.66167 22.0107 1.65906ZM8.68906 13.6417C7.40695 13.6417 6.35233 12.4544 6.35233 10.9982C6.35233 9.54032 7.38745 8.35305 8.68906 8.35305C10.0004 8.35305 11.0453 9.55016 11.0258 10.9982C11.0258 12.4544 9.99067 13.6417 8.68906 13.6417ZM17.3275 13.6417C16.047 13.6417 14.9907 12.4544 14.9907 10.9982C14.9907 9.54032 16.0259 8.35305 17.3275 8.35305C18.6388 8.35305 19.6853 9.55016 19.6642 10.9982C19.6642 12.4544 18.6388 13.6417 17.3275 13.6417Z" fill="white"/>
</svg>
