<svg id="svg" xmlns="http://www.w3.org/2000/svg" xmlns:xlink="http://www.w3.org/1999/xlink" width="400" height="400" viewBox="0, 0, 400,400"><g id="svgg"><path id="path0" d="M63.994 0.816 C 47.853 4.672,34.577 16.969,29.093 33.142 L 26.953 39.453 26.953 199.609 L 26.953 359.766 28.768 365.625 C 33.354 380.427,43.783 391.635,58.440 397.512 L 63.672 399.609 155.859 399.848 C 254.829 400.105,255.795 400.073,271.604 396.091 C 321.032 383.638,359.982 342.784,370.318 292.549 C 373.282 278.144,373.528 266.402,373.283 150.781 L 373.047 39.453 370.907 33.142 C 366.067 18.868,355.883 8.232,341.560 2.488 L 336.328 0.391 201.563 0.268 C 127.441 0.201,65.536 0.447,63.994 0.816 M331.350 28.537 C 335.933 30.099,340.110 33.611,342.774 38.143 L 344.922 41.797 344.922 160.547 C 344.922 273.393,344.850 279.625,343.470 285.906 C 333.969 329.151,303.232 360.226,259.766 370.530 C 250.254 372.785,75.350 373.676,68.807 371.503 C 64.131 369.950,59.923 366.445,57.226 361.857 L 55.078 358.203 55.078 200.000 L 55.078 41.797 57.226 38.143 C 59.806 33.754,64.040 30.110,68.330 28.587 C 73.252 26.839,326.227 26.792,331.350 28.537 M75.837 44.337 C 69.367 47.636,69.948 38.263,69.717 143.028 C 69.491 245.454,69.229 239.816,74.367 242.949 C 78.444 245.435,321.556 245.435,325.633 242.949 C 330.771 239.816,330.509 245.454,330.283 143.028 C 330.052 38.263,330.633 47.636,324.163 44.337 C 320.012 42.221,79.988 42.221,75.837 44.337 M309.375 144.141 L 309.375 224.219 200.000 224.219 L 90.625 224.219 90.625 144.141 L 90.625 64.063 200.000 64.063 L 309.375 64.063 309.375 144.141 M289.768 266.438 C 269.288 269.778,264.995 299.176,283.627 308.487 C 296.261 314.800,311.766 308.665,315.611 295.832 C 320.671 278.942,307.181 263.598,289.768 266.438 M105.409 269.471 C 103.148 271.732,103.125 271.844,103.125 280.799 L 103.125 289.844 95.287 289.844 C 80.501 289.844,79.688 290.944,79.688 310.938 C 79.688 330.982,79.876 331.250,94.026 331.250 L 102.998 331.250 103.257 341.085 C 103.627 355.148,102.940 354.688,123.532 354.688 C 144.400 354.687,144.531 354.595,144.531 339.883 L 144.531 331.250 153.567 331.250 C 167.788 331.250,167.969 330.996,167.969 310.938 C 167.969 290.961,167.146 289.844,152.434 289.844 L 144.662 289.844 144.401 280.399 C 144.025 266.757,144.698 267.188,123.724 267.188 L 107.692 267.188 105.409 269.471 M245.471 311.102 C 229.542 313.466,221.865 332.329,231.126 346.351 C 240.927 361.190,266.336 357.206,271.136 340.079 C 275.843 323.284,262.779 308.534,245.471 311.102 " stroke="none" fill="#FFF" fill-rule="evenodd"></path></g></svg>