<svg width="20" height="20" viewBox="0 0 20 20" fill="none" xmlns="http://www.w3.org/2000/svg">
<path fill-rule="evenodd" clip-rule="evenodd" d="M7.85758 7.47449H10.9526V9.01616C11.3984 8.12949 12.5417 7.33283 14.2592 7.33283C17.5517 7.33283 18.3334 9.09783 18.3334 12.3362V18.3337H15.0001V13.0737C15.0001 11.2295 14.5542 10.1895 13.4192 10.1895C11.8451 10.1895 11.1909 11.3103 11.1909 13.0728V18.3337H7.85758V7.47449ZM2.14175 18.192H5.47508V7.33283H2.14175V18.192ZM5.95258 3.79199C5.9527 4.07139 5.89729 4.34802 5.78957 4.60581C5.68185 4.86361 5.52396 5.09742 5.32508 5.29366C4.92208 5.69418 4.37659 5.91837 3.80841 5.91699C3.24124 5.91661 2.69701 5.69299 2.29341 5.29449C2.09526 5.09759 1.9379 4.86351 1.83037 4.60569C1.72283 4.34786 1.66723 4.07135 1.66675 3.79199C1.66675 3.22783 1.89175 2.68783 2.29425 2.28949C2.69749 1.89046 3.24195 1.66674 3.80925 1.66699C4.37758 1.66699 4.92258 1.89116 5.32508 2.28949C5.72675 2.68783 5.95258 3.22783 5.95258 3.79199Z" fill="white"/>
</svg>
