<svg width="25" height="20" viewBox="0 0 25 20" fill="none" xmlns="http://www.w3.org/2000/svg">
<path d="M2.965 4.08C2.98032 3.92783 2.9598 3.77419 2.90511 3.63137C2.85041 3.48855 2.76304 3.36051 2.65 3.2575L0.315 0.42375V0H7.5625L13.165 12.3812L18.09 0H25V0.42375L23.0037 2.35C22.9192 2.41531 22.8539 2.50237 22.8149 2.60188C22.776 2.70139 22.7648 2.80962 22.7825 2.915V17.0825C22.7648 17.1879 22.776 17.2961 22.8149 17.3956C22.8539 17.4951 22.9192 17.5822 23.0037 17.6475L24.9537 19.575V20H15.1488V19.5762L17.1687 17.6012C17.3675 17.4012 17.3675 17.3425 17.3675 17.0375V5.585L11.7525 19.9525H10.995L4.4575 5.585V15.215C4.40375 15.6188 4.5375 16.0275 4.82 16.32L7.44625 19.53V19.9525H0V19.53L2.625 16.32C2.76389 16.1751 2.86697 15.9997 2.926 15.8078C2.98504 15.6159 2.99839 15.4129 2.965 15.215V4.08Z" fill="white"/>
</svg>
