<svg width="28" height="32" viewBox="0 0 28 32" fill="none" xmlns="http://www.w3.org/2000/svg">
<path d="M14.6106 0.692615C16.2927 0.666626 17.9653 0.682027 19.6359 0.666626C19.7371 2.63119 20.4447 4.63234 21.8849 6.0213C23.3222 7.44491 25.3553 8.09656 27.3334 8.31698V13.4849C25.4797 13.4243 23.6172 13.0393 21.935 12.2423C21.2024 11.9111 20.5199 11.4847 19.8518 11.0487C19.8432 14.7988 19.8673 18.5441 19.8277 22.2788C19.7275 24.073 19.1346 25.8585 18.0896 27.337C16.4084 29.7982 13.4904 31.4028 10.4933 31.4529C8.65496 31.5578 6.81854 31.0573 5.25204 30.1351C2.65599 28.6066 0.829204 25.8085 0.563139 22.8053C0.529626 22.1693 0.524479 21.5321 0.547715 20.8956C0.779076 18.4536 1.9889 16.1175 3.86677 14.5283C5.99529 12.6773 8.97694 11.7956 11.7687 12.3173C11.7947 14.2184 11.7186 16.1175 11.7186 18.0185C10.4432 17.6066 8.95284 17.7221 7.83845 18.495C7.02314 19.0313 6.40701 19.8203 6.08494 20.7406C5.81887 21.3913 5.89503 22.1142 5.91045 22.8053C6.21604 24.9114 8.2443 26.6815 10.4094 26.49C11.8448 26.4746 13.2205 25.6429 13.9685 24.4253C14.2105 23.9989 14.4814 23.5628 14.4958 23.0613C14.6221 20.7657 14.572 18.4796 14.5874 16.1839C14.598 11.0102 14.572 5.85093 14.6115 0.693577L14.6106 0.692615Z" fill="white"/>
</svg>
