<svg width="56" height="56" viewBox="0 0 56 56" fill="none" xmlns="http://www.w3.org/2000/svg">
<path d="M28 56C43.464 56 56 43.464 56 28C56 12.536 43.464 0 28 0C12.536 0 0 12.536 0 28C0 43.464 12.536 56 28 56Z" fill="white"/>
<path d="M46.6663 28C46.6663 25.7403 44.8324 23.9064 42.5727 23.9064C41.4593 23.9064 40.4768 24.3321 39.7563 25.0526C36.9727 23.0549 33.1084 21.745 28.8511 21.5813L30.7177 12.8374L36.7762 14.1146C36.8417 15.6538 38.1189 16.8982 39.6908 16.8982C41.2955 16.8982 42.6055 15.5883 42.6055 13.9836C42.6055 12.3789 41.2955 11.069 39.6908 11.069C38.5446 11.069 37.5622 11.7239 37.1037 12.7064L30.3248 11.2655C30.1283 11.2327 29.9318 11.2655 29.768 11.3637C29.6043 11.462 29.506 11.6257 29.4405 11.8222L27.3774 21.5813C23.0218 21.7122 19.1248 22.9894 16.3084 25.0526C15.5879 24.3649 14.5727 23.9064 13.492 23.9064C11.2324 23.9064 9.39844 25.7403 9.39844 28C9.39844 29.6701 10.3809 31.0783 11.8218 31.7333C11.7563 32.1263 11.7236 32.552 11.7236 32.9777C11.7236 39.2655 19.0265 44.3415 28.0651 44.3415C37.1037 44.3415 44.4066 39.2655 44.4066 32.9777C44.4066 32.552 44.3739 32.159 44.3084 31.766C45.6511 31.1111 46.6663 29.6701 46.6663 28ZM18.6663 30.9146C18.6663 29.3099 19.9762 28 21.5809 28C23.1856 28 24.4955 29.3099 24.4955 30.9146C24.4955 32.5193 23.1856 33.8292 21.5809 33.8292C19.9762 33.8292 18.6663 32.5193 18.6663 30.9146ZM34.9423 38.6105C32.9446 40.6082 29.1458 40.7391 28.0324 40.7391C26.9189 40.7391 23.0873 40.5754 21.1224 38.6105C20.8277 38.3158 20.8277 37.8245 21.1224 37.5298C21.4171 37.2351 21.9084 37.2351 22.2031 37.5298C23.4476 38.7742 26.1329 39.2327 28.0651 39.2327C29.9973 39.2327 32.6499 38.7742 33.9271 37.5298C34.2218 37.2351 34.7131 37.2351 35.0078 37.5298C35.237 37.8573 35.237 38.3158 34.9423 38.6105ZM34.4183 33.8292C32.8136 33.8292 31.5037 32.5193 31.5037 30.9146C31.5037 29.3099 32.8136 28 34.4183 28C36.023 28 37.3329 29.3099 37.3329 30.9146C37.3329 32.5193 36.023 33.8292 34.4183 33.8292Z" fill="#191B1F"/>
</svg>
