<svg version="1.1" width="390" height="290" viewBox="0 0 390 290" xmlns="http://www.w3.org/2000/svg" shape-rendering="crispEdges">
<rect x="110" y="10" width="10" height="10" fill="#181425" />
<rect x="120" y="10" width="10" height="10" fill="#181425" />
<rect x="130" y="10" width="10" height="10" fill="#181425" />
<rect x="170" y="10" width="10" height="10" fill="#181425" />
<rect x="180" y="10" width="10" height="10" fill="#181425" />
<rect x="190" y="10" width="10" height="10" fill="#181425" />
<rect x="110" y="20" width="10" height="10" fill="#181425" />
<rect x="120" y="20" width="10" height="10" fill="#A22633" />
<rect x="130" y="20" width="10" height="10" fill="#A22633" />
<rect x="140" y="20" width="10" height="10" fill="#181425" />
<rect x="150" y="20" width="10" height="10" fill="#181425" />
<rect x="170" y="20" width="10" height="10" fill="#181425" />
<rect x="180" y="20" width="10" height="10" fill="#A22633" />
<rect x="190" y="20" width="10" height="10" fill="#A22633" />
<rect x="200" y="20" width="10" height="10" fill="#181425" />
<rect x="230" y="20" width="10" height="10" fill="#181425" />
<rect x="240" y="20" width="10" height="10" fill="#181425" />
<rect x="120" y="30" width="10" height="10" fill="#181425" />
<rect x="130" y="30" width="10" height="10" fill="#A22633" />
<rect x="140" y="30" width="10" height="10" fill="#A22633" />
<rect x="150" y="30" width="10" height="10" fill="#A22633" />
<rect x="160" y="30" width="10" height="10" fill="#181425" />
<rect x="170" y="30" width="10" height="10" fill="#181425" />
<rect x="180" y="30" width="10" height="10" fill="#181425" />
<rect x="190" y="30" width="10" height="10" fill="#A22633" />
<rect x="200" y="30" width="10" height="10" fill="#A22633" />
<rect x="210" y="30" width="10" height="10" fill="#181425" />
<rect x="230" y="30" width="10" height="10" fill="#181425" />
<rect x="240" y="30" width="10" height="10" fill="#A22633" />
<rect x="250" y="30" width="10" height="10" fill="#181425" />
<rect x="90" y="40" width="10" height="10" fill="#181425" />
<rect x="100" y="40" width="10" height="10" fill="#181425" />
<rect x="110" y="40" width="10" height="10" fill="#181425" />
<rect x="120" y="40" width="10" height="10" fill="#181425" />
<rect x="130" y="40" width="10" height="10" fill="#181425" />
<rect x="140" y="40" width="10" height="10" fill="#A22633" />
<rect x="150" y="40" width="10" height="10" fill="#181425" />
<rect x="160" y="40" width="10" height="10" fill="#181425" />
<rect x="170" y="40" width="10" height="10" fill="#A22633" />
<rect x="180" y="40" width="10" height="10" fill="#A22633" />
<rect x="190" y="40" width="10" height="10" fill="#181425" />
<rect x="200" y="40" width="10" height="10" fill="#A22633" />
<rect x="210" y="40" width="10" height="10" fill="#A22633" />
<rect x="220" y="40" width="10" height="10" fill="#181425" />
<rect x="230" y="40" width="10" height="10" fill="#181425" />
<rect x="240" y="40" width="10" height="10" fill="#A22633" />
<rect x="250" y="40" width="10" height="10" fill="#181425" />
<rect x="350" y="40" width="10" height="10" fill="#181425" />
<rect x="360" y="40" width="10" height="10" fill="#181425" />
<rect x="70" y="50" width="10" height="10" fill="#181425" />
<rect x="80" y="50" width="10" height="10" fill="#181425" />
<rect x="90" y="50" width="10" height="10" fill="#A22633" />
<rect x="100" y="50" width="10" height="10" fill="#A22633" />
<rect x="110" y="50" width="10" height="10" fill="#A22633" />
<rect x="120" y="50" width="10" height="10" fill="#A22633" />
<rect x="130" y="50" width="10" height="10" fill="#A22633" />
<rect x="140" y="50" width="10" height="10" fill="#181425" />
<rect x="150" y="50" width="10" height="10" fill="#181425" />
<rect x="160" y="50" width="10" height="10" fill="#EAD4AA" />
<rect x="170" y="50" width="10" height="10" fill="#181425" />
<rect x="180" y="50" width="10" height="10" fill="#A22633" />
<rect x="190" y="50" width="10" height="10" fill="#A22633" />
<rect x="200" y="50" width="10" height="10" fill="#A22633" />
<rect x="210" y="50" width="10" height="10" fill="#A22633" />
<rect x="220" y="50" width="10" height="10" fill="#A22633" />
<rect x="230" y="50" width="10" height="10" fill="#181425" />
<rect x="240" y="50" width="10" height="10" fill="#A22633" />
<rect x="250" y="50" width="10" height="10" fill="#A22633" />
<rect x="260" y="50" width="10" height="10" fill="#181425" />
<rect x="340" y="50" width="10" height="10" fill="#181425" />
<rect x="350" y="50" width="10" height="10" fill="#EAD4AA" />
<rect x="360" y="50" width="10" height="10" fill="#181425" />
<rect x="60" y="60" width="10" height="10" fill="#181425" />
<rect x="70" y="60" width="10" height="10" fill="#A22633" />
<rect x="80" y="60" width="10" height="10" fill="#A22633" />
<rect x="90" y="60" width="10" height="10" fill="#A22633" />
<rect x="100" y="60" width="10" height="10" fill="#A22633" />
<rect x="110" y="60" width="10" height="10" fill="#A22633" />
<rect x="120" y="60" width="10" height="10" fill="#A22633" />
<rect x="130" y="60" width="10" height="10" fill="#A22633" />
<rect x="140" y="60" width="10" height="10" fill="#A22633" />
<rect x="150" y="60" width="10" height="10" fill="#A22633" />
<rect x="160" y="60" width="10" height="10" fill="#181425" />
<rect x="170" y="60" width="10" height="10" fill="#EAD4AA" />
<rect x="180" y="60" width="10" height="10" fill="#181425" />
<rect x="190" y="60" width="10" height="10" fill="#A22633" />
<rect x="200" y="60" width="10" height="10" fill="#A22633" />
<rect x="210" y="60" width="10" height="10" fill="#A22633" />
<rect x="220" y="60" width="10" height="10" fill="#A22633" />
<rect x="230" y="60" width="10" height="10" fill="#A22633" />
<rect x="240" y="60" width="10" height="10" fill="#181425" />
<rect x="250" y="60" width="10" height="10" fill="#A22633" />
<rect x="260" y="60" width="10" height="10" fill="#181425" />
<rect x="290" y="60" width="10" height="10" fill="#181425" />
<rect x="300" y="60" width="10" height="10" fill="#181425" />
<rect x="330" y="60" width="10" height="10" fill="#181425" />
<rect x="340" y="60" width="10" height="10" fill="#EAD4AA" />
<rect x="350" y="60" width="10" height="10" fill="#181425" />
<rect x="70" y="70" width="10" height="10" fill="#181425" />
<rect x="80" y="70" width="10" height="10" fill="#181425" />
<rect x="90" y="70" width="10" height="10" fill="#181425" />
<rect x="100" y="70" width="10" height="10" fill="#7C1A24" />
<rect x="110" y="70" width="10" height="10" fill="#A22633" />
<rect x="120" y="70" width="10" height="10" fill="#A22633" />
<rect x="130" y="70" width="10" height="10" fill="#A22633" />
<rect x="140" y="70" width="10" height="10" fill="#A22633" />
<rect x="150" y="70" width="10" height="10" fill="#A22633" />
<rect x="160" y="70" width="10" height="10" fill="#181425" />
<rect x="170" y="70" width="10" height="10" fill="#EAD4AA" />
<rect x="180" y="70" width="10" height="10" fill="#EAD4AA" />
<rect x="190" y="70" width="10" height="10" fill="#181425" />
<rect x="200" y="70" width="10" height="10" fill="#A22633" />
<rect x="210" y="70" width="10" height="10" fill="#A22633" />
<rect x="220" y="70" width="10" height="10" fill="#A22633" />
<rect x="230" y="70" width="10" height="10" fill="#A22633" />
<rect x="240" y="70" width="10" height="10" fill="#181425" />
<rect x="250" y="70" width="10" height="10" fill="#A22633" />
<rect x="260" y="70" width="10" height="10" fill="#181425" />
<rect x="280" y="70" width="10" height="10" fill="#181425" />
<rect x="290" y="70" width="10" height="10" fill="#A22633" />
<rect x="300" y="70" width="10" height="10" fill="#181425" />
<rect x="320" y="70" width="10" height="10" fill="#181425" />
<rect x="330" y="70" width="10" height="10" fill="#EAD4AA" />
<rect x="340" y="70" width="10" height="10" fill="#EAD4AA" />
<rect x="350" y="70" width="10" height="10" fill="#181425" />
<rect x="100" y="80" width="10" height="10" fill="#181425" />
<rect x="110" y="80" width="10" height="10" fill="#181425" />
<rect x="120" y="80" width="10" height="10" fill="#7C1A24" />
<rect x="130" y="80" width="10" height="10" fill="#7C1A24" />
<rect x="140" y="80" width="10" height="10" fill="#A22633" />
<rect x="150" y="80" width="10" height="10" fill="#A22633" />
<rect x="160" y="80" width="10" height="10" fill="#A22633" />
<rect x="170" y="80" width="10" height="10" fill="#181425" />
<rect x="180" y="80" width="10" height="10" fill="#EAD4AA" />
<rect x="190" y="80" width="10" height="10" fill="#EAD4AA" />
<rect x="200" y="80" width="10" height="10" fill="#181425" />
<rect x="210" y="80" width="10" height="10" fill="#7C1A24" />
<rect x="220" y="80" width="10" height="10" fill="#7C1A24" />
<rect x="230" y="80" width="10" height="10" fill="#A22633" />
<rect x="240" y="80" width="10" height="10" fill="#A22633" />
<rect x="250" y="80" width="10" height="10" fill="#A22633" />
<rect x="260" y="80" width="10" height="10" fill="#181425" />
<rect x="270" y="80" width="10" height="10" fill="#181425" />
<rect x="280" y="80" width="10" height="10" fill="#A22633" />
<rect x="290" y="80" width="10" height="10" fill="#181425" />
<rect x="310" y="80" width="10" height="10" fill="#181425" />
<rect x="320" y="80" width="10" height="10" fill="#EAD4AA" />
<rect x="330" y="80" width="10" height="10" fill="#EAD4AA" />
<rect x="340" y="80" width="10" height="10" fill="#181425" />
<rect x="60" y="90" width="10" height="10" fill="#181425" />
<rect x="70" y="90" width="10" height="10" fill="#181425" />
<rect x="80" y="90" width="10" height="10" fill="#181425" />
<rect x="120" y="90" width="10" height="10" fill="#181425" />
<rect x="130" y="90" width="10" height="10" fill="#7C1A24" />
<rect x="140" y="90" width="10" height="10" fill="#7C1A24" />
<rect x="150" y="90" width="10" height="10" fill="#7C1A24" />
<rect x="160" y="90" width="10" height="10" fill="#A22633" />
<rect x="170" y="90" width="10" height="10" fill="#A22633" />
<rect x="180" y="90" width="10" height="10" fill="#181425" />
<rect x="190" y="90" width="10" height="10" fill="#EAD4AA" />
<rect x="200" y="90" width="10" height="10" fill="#EAD4AA" />
<rect x="210" y="90" width="10" height="10" fill="#181425" />
<rect x="220" y="90" width="10" height="10" fill="#7C1A24" />
<rect x="230" y="90" width="10" height="10" fill="#7C1A24" />
<rect x="240" y="90" width="10" height="10" fill="#A22633" />
<rect x="250" y="90" width="10" height="10" fill="#A22633" />
<rect x="260" y="90" width="10" height="10" fill="#A22633" />
<rect x="270" y="90" width="10" height="10" fill="#A22633" />
<rect x="280" y="90" width="10" height="10" fill="#A22633" />
<rect x="290" y="90" width="10" height="10" fill="#181425" />
<rect x="300" y="90" width="10" height="10" fill="#181425" />
<rect x="310" y="90" width="10" height="10" fill="#EAD4AA" />
<rect x="320" y="90" width="10" height="10" fill="#EAD4AA" />
<rect x="330" y="90" width="10" height="10" fill="#181425" />
<rect x="60" y="100" width="10" height="10" fill="#181425" />
<rect x="70" y="100" width="10" height="10" fill="#A22633" />
<rect x="80" y="100" width="10" height="10" fill="#A22633" />
<rect x="90" y="100" width="10" height="10" fill="#181425" />
<rect x="100" y="100" width="10" height="10" fill="#181425" />
<rect x="110" y="100" width="10" height="10" fill="#181425" />
<rect x="120" y="100" width="10" height="10" fill="#A22633" />
<rect x="130" y="100" width="10" height="10" fill="#A22633" />
<rect x="140" y="100" width="10" height="10" fill="#A22633" />
<rect x="150" y="100" width="10" height="10" fill="#A22633" />
<rect x="160" y="100" width="10" height="10" fill="#A22633" />
<rect x="170" y="100" width="10" height="10" fill="#7C1A24" />
<rect x="180" y="100" width="10" height="10" fill="#181425" />
<rect x="190" y="100" width="10" height="10" fill="#EAD4AA" />
<rect x="200" y="100" width="10" height="10" fill="#EAD4AA" />
<rect x="210" y="100" width="10" height="10" fill="#EAD4AA" />
<rect x="220" y="100" width="10" height="10" fill="#181425" />
<rect x="230" y="100" width="10" height="10" fill="#7C1A24" />
<rect x="240" y="100" width="10" height="10" fill="#7C1A24" />
<rect x="250" y="100" width="10" height="10" fill="#A22633" />
<rect x="260" y="100" width="10" height="10" fill="#7C1A24" />
<rect x="270" y="100" width="10" height="10" fill="#A22633" />
<rect x="280" y="100" width="10" height="10" fill="#181425" />
<rect x="290" y="100" width="10" height="10" fill="#181425" />
<rect x="300" y="100" width="10" height="10" fill="#EAD4AA" />
<rect x="310" y="100" width="10" height="10" fill="#EAD4AA" />
<rect x="320" y="100" width="10" height="10" fill="#EAD4AA" />
<rect x="330" y="100" width="10" height="10" fill="#181425" />
<rect x="30" y="110" width="10" height="10" fill="#181425" />
<rect x="40" y="110" width="10" height="10" fill="#181425" />
<rect x="70" y="110" width="10" height="10" fill="#181425" />
<rect x="80" y="110" width="10" height="10" fill="#A22633" />
<rect x="90" y="110" width="10" height="10" fill="#A22633" />
<rect x="100" y="110" width="10" height="10" fill="#A22633" />
<rect x="110" y="110" width="10" height="10" fill="#A22633" />
<rect x="120" y="110" width="10" height="10" fill="#A22633" />
<rect x="130" y="110" width="10" height="10" fill="#A22633" />
<rect x="140" y="110" width="10" height="10" fill="#A22633" />
<rect x="150" y="110" width="10" height="10" fill="#A22633" />
<rect x="160" y="110" width="10" height="10" fill="#A22633" />
<rect x="170" y="110" width="10" height="10" fill="#A22633" />
<rect x="180" y="110" width="10" height="10" fill="#181425" />
<rect x="190" y="110" width="10" height="10" fill="#181425" />
<rect x="200" y="110" width="10" height="10" fill="#EAD4AA" />
<rect x="210" y="110" width="10" height="10" fill="#EAD4AA" />
<rect x="220" y="110" width="10" height="10" fill="#EAD4AA" />
<rect x="230" y="110" width="10" height="10" fill="#746361" />
<rect x="240" y="110" width="10" height="10" fill="#746361" />
<rect x="250" y="110" width="10" height="10" fill="#7C1A24" />
<rect x="260" y="110" width="10" height="10" fill="#7C1A24" />
<rect x="270" y="110" width="10" height="10" fill="#A22633" />
<rect x="280" y="110" width="10" height="10" fill="#181425" />
<rect x="290" y="110" width="10" height="10" fill="#EAD4AA" />
<rect x="300" y="110" width="10" height="10" fill="#EAD4AA" />
<rect x="310" y="110" width="10" height="10" fill="#EAD4AA" />
<rect x="320" y="110" width="10" height="10" fill="#181425" />
<rect x="30" y="120" width="10" height="10" fill="#181425" />
<rect x="40" y="120" width="10" height="10" fill="#A22633" />
<rect x="50" y="120" width="10" height="10" fill="#181425" />
<rect x="60" y="120" width="10" height="10" fill="#181425" />
<rect x="80" y="120" width="10" height="10" fill="#181425" />
<rect x="90" y="120" width="10" height="10" fill="#7C1A24" />
<rect x="100" y="120" width="10" height="10" fill="#7C1A24" />
<rect x="110" y="120" width="10" height="10" fill="#7C1A24" />
<rect x="120" y="120" width="10" height="10" fill="#7C1A24" />
<rect x="130" y="120" width="10" height="10" fill="#A22633" />
<rect x="140" y="120" width="10" height="10" fill="#A22633" />
<rect x="150" y="120" width="10" height="10" fill="#A22633" />
<rect x="160" y="120" width="10" height="10" fill="#181425" />
<rect x="170" y="120" width="10" height="10" fill="#181425" />
<rect x="180" y="120" width="10" height="10" fill="#746361" />
<rect x="190" y="120" width="10" height="10" fill="#746361" />
<rect x="200" y="120" width="10" height="10" fill="#181425" />
<rect x="210" y="120" width="10" height="10" fill="#EAD4AA" />
<rect x="220" y="120" width="10" height="10" fill="#746361" />
<rect x="230" y="120" width="10" height="10" fill="#746361" />
<rect x="240" y="120" width="10" height="10" fill="#746361" />
<rect x="250" y="120" width="10" height="10" fill="#746361" />
<rect x="260" y="120" width="10" height="10" fill="#7C1A24" />
<rect x="270" y="120" width="10" height="10" fill="#7C1A24" />
<rect x="280" y="120" width="10" height="10" fill="#746361" />
<rect x="290" y="120" width="10" height="10" fill="#746361" />
<rect x="300" y="120" width="10" height="10" fill="#EAD4AA" />
<rect x="310" y="120" width="10" height="10" fill="#181425" />
<rect x="40" y="130" width="10" height="10" fill="#181425" />
<rect x="50" y="130" width="10" height="10" fill="#A22633" />
<rect x="60" y="130" width="10" height="10" fill="#A22633" />
<rect x="70" y="130" width="10" height="10" fill="#181425" />
<rect x="80" y="130" width="10" height="10" fill="#7C1A24" />
<rect x="90" y="130" width="10" height="10" fill="#7C1A24" />
<rect x="100" y="130" width="10" height="10" fill="#7C1A24" />
<rect x="110" y="130" width="10" height="10" fill="#A22633" />
<rect x="120" y="130" width="10" height="10" fill="#A22633" />
<rect x="130" y="130" width="10" height="10" fill="#A22633" />
<rect x="140" y="130" width="10" height="10" fill="#A22633" />
<rect x="150" y="130" width="10" height="10" fill="#181425" />
<rect x="160" y="130" width="10" height="10" fill="#746361" />
<rect x="170" y="130" width="10" height="10" fill="#746361" />
<rect x="180" y="130" width="10" height="10" fill="#746361" />
<rect x="190" y="130" width="10" height="10" fill="#746361" />
<rect x="200" y="130" width="10" height="10" fill="#746361" />
<rect x="210" y="130" width="10" height="10" fill="#746361" />
<rect x="220" y="130" width="10" height="10" fill="#746361" />
<rect x="230" y="130" width="10" height="10" fill="#746361" />
<rect x="240" y="130" width="10" height="10" fill="#746361" />
<rect x="250" y="130" width="10" height="10" fill="#746361" />
<rect x="260" y="130" width="10" height="10" fill="#746361" />
<rect x="270" y="130" width="10" height="10" fill="#7C1A24" />
<rect x="280" y="130" width="10" height="10" fill="#746361" />
<rect x="290" y="130" width="10" height="10" fill="#746361" />
<rect x="300" y="130" width="10" height="10" fill="#181425" />
<rect x="310" y="130" width="10" height="10" fill="#181425" />
<rect x="320" y="130" width="10" height="10" fill="#181425" />
<rect x="20" y="140" width="10" height="10" fill="#181425" />
<rect x="50" y="140" width="10" height="10" fill="#181425" />
<rect x="60" y="140" width="10" height="10" fill="#A22633" />
<rect x="70" y="140" width="10" height="10" fill="#A22633" />
<rect x="80" y="140" width="10" height="10" fill="#A22633" />
<rect x="90" y="140" width="10" height="10" fill="#A22633" />
<rect x="100" y="140" width="10" height="10" fill="#A22633" />
<rect x="110" y="140" width="10" height="10" fill="#A22633" />
<rect x="120" y="140" width="10" height="10" fill="#A22633" />
<rect x="130" y="140" width="10" height="10" fill="#A22633" />
<rect x="140" y="140" width="10" height="10" fill="#181425" />
<rect x="150" y="140" width="10" height="10" fill="#FEE761" />
<rect x="160" y="140" width="10" height="10" fill="#746361" />
<rect x="170" y="140" width="10" height="10" fill="#181425" />
<rect x="180" y="140" width="10" height="10" fill="#181425" />
<rect x="190" y="140" width="10" height="10" fill="#746361" />
<rect x="200" y="140" width="10" height="10" fill="#181425" />
<rect x="210" y="140" width="10" height="10" fill="#181425" />
<rect x="220" y="140" width="10" height="10" fill="#181425" />
<rect x="230" y="140" width="10" height="10" fill="#181425" />
<rect x="240" y="140" width="10" height="10" fill="#181425" />
<rect x="250" y="140" width="10" height="10" fill="#746361" />
<rect x="260" y="140" width="10" height="10" fill="#746361" />
<rect x="270" y="140" width="10" height="10" fill="#746361" />
<rect x="280" y="140" width="10" height="10" fill="#746361" />
<rect x="290" y="140" width="10" height="10" fill="#746361" />
<rect x="300" y="140" width="10" height="10" fill="#181425" />
<rect x="310" y="140" width="10" height="10" fill="#181425" />
<rect x="320" y="140" width="10" height="10" fill="#FEE761" />
<rect x="330" y="140" width="10" height="10" fill="#181425" />
<rect x="10" y="150" width="10" height="10" fill="#181425" />
<rect x="20" y="150" width="10" height="10" fill="#A22633" />
<rect x="30" y="150" width="10" height="10" fill="#181425" />
<rect x="40" y="150" width="10" height="10" fill="#181425" />
<rect x="50" y="150" width="10" height="10" fill="#7C1A24" />
<rect x="60" y="150" width="10" height="10" fill="#7C1A24" />
<rect x="70" y="150" width="10" height="10" fill="#A22633" />
<rect x="80" y="150" width="10" height="10" fill="#A22633" />
<rect x="90" y="150" width="10" height="10" fill="#A22633" />
<rect x="100" y="150" width="10" height="10" fill="#A22633" />
<rect x="110" y="150" width="10" height="10" fill="#A22633" />
<rect x="120" y="150" width="10" height="10" fill="#A22633" />
<rect x="130" y="150" width="10" height="10" fill="#181425" />
<rect x="140" y="150" width="10" height="10" fill="#FEE761" />
<rect x="150" y="150" width="10" height="10" fill="#181425" />
<rect x="160" y="150" width="10" height="10" fill="#181425" />
<rect x="170" y="150" width="10" height="10" fill="#FEE761" />
<rect x="180" y="150" width="10" height="10" fill="#181425" />
<rect x="190" y="150" width="10" height="10" fill="#181425" />
<rect x="200" y="150" width="10" height="10" fill="#181425" />
<rect x="210" y="150" width="10" height="10" fill="#FFFFFF" />
<rect x="220" y="150" width="10" height="10" fill="#FFFFFF" />
<rect x="230" y="150" width="10" height="10" fill="#FFFFFF" />
<rect x="240" y="150" width="10" height="10" fill="#181425" />
<rect x="250" y="150" width="10" height="10" fill="#181425" />
<rect x="260" y="150" width="10" height="10" fill="#746361" />
<rect x="270" y="150" width="10" height="10" fill="#181425" />
<rect x="280" y="150" width="10" height="10" fill="#746361" />
<rect x="290" y="150" width="10" height="10" fill="#181425" />
<rect x="300" y="150" width="10" height="10" fill="#181425" />
<rect x="310" y="150" width="10" height="10" fill="#FFFFFF" />
<rect x="320" y="150" width="10" height="10" fill="#181425" />
<rect x="330" y="150" width="10" height="10" fill="#FEE761" />
<rect x="340" y="150" width="10" height="10" fill="#181425" />
<rect x="10" y="160" width="10" height="10" fill="#181425" />
<rect x="20" y="160" width="10" height="10" fill="#7C1A24" />
<rect x="30" y="160" width="10" height="10" fill="#A22633" />
<rect x="40" y="160" width="10" height="10" fill="#A22633" />
<rect x="50" y="160" width="10" height="10" fill="#A22633" />
<rect x="60" y="160" width="10" height="10" fill="#A22633" />
<rect x="70" y="160" width="10" height="10" fill="#A22633" />
<rect x="80" y="160" width="10" height="10" fill="#A22633" />
<rect x="90" y="160" width="10" height="10" fill="#A22633" />
<rect x="100" y="160" width="10" height="10" fill="#A22633" />
<rect x="110" y="160" width="10" height="10" fill="#A22633" />
<rect x="120" y="160" width="10" height="10" fill="#A22633" />
<rect x="130" y="160" width="10" height="10" fill="#A22633" />
<rect x="140" y="160" width="10" height="10" fill="#181425" />
<rect x="150" y="160" width="10" height="10" fill="#FEE761" />
<rect x="160" y="160" width="10" height="10" fill="#FEE761" />
<rect x="170" y="160" width="10" height="10" fill="#181425" />
<rect x="180" y="160" width="10" height="10" fill="#564645" />
<rect x="190" y="160" width="10" height="10" fill="#746361" />
<rect x="200" y="160" width="10" height="10" fill="#746361" />
<rect x="210" y="160" width="10" height="10" fill="#181425" />
<rect x="220" y="160" width="10" height="10" fill="#FFFFFF" />
<rect x="230" y="160" width="10" height="10" fill="#FFFFFF" />
<rect x="240" y="160" width="10" height="10" fill="#181425" />
<rect x="250" y="160" width="10" height="10" fill="#FFFFFF" />
<rect x="260" y="160" width="10" height="10" fill="#181425" />
<rect x="270" y="160" width="10" height="10" fill="#181425" />
<rect x="280" y="160" width="10" height="10" fill="#181425" />
<rect x="290" y="160" width="10" height="10" fill="#FFFFFF" />
<rect x="300" y="160" width="10" height="10" fill="#181425" />
<rect x="310" y="160" width="10" height="10" fill="#FFFFFF" />
<rect x="320" y="160" width="10" height="10" fill="#181425" />
<rect x="330" y="160" width="10" height="10" fill="#FEE761" />
<rect x="340" y="160" width="10" height="10" fill="#181425" />
<rect x="10" y="170" width="10" height="10" fill="#181425" />
<rect x="20" y="170" width="10" height="10" fill="#181425" />
<rect x="30" y="170" width="10" height="10" fill="#7C1A24" />
<rect x="40" y="170" width="10" height="10" fill="#A22633" />
<rect x="50" y="170" width="10" height="10" fill="#A22633" />
<rect x="60" y="170" width="10" height="10" fill="#A22633" />
<rect x="70" y="170" width="10" height="10" fill="#A22633" />
<rect x="80" y="170" width="10" height="10" fill="#A22633" />
<rect x="90" y="170" width="10" height="10" fill="#A22633" />
<rect x="100" y="170" width="10" height="10" fill="#A22633" />
<rect x="110" y="170" width="10" height="10" fill="#A22633" />
<rect x="120" y="170" width="10" height="10" fill="#A22633" />
<rect x="130" y="170" width="10" height="10" fill="#A22633" />
<rect x="140" y="170" width="10" height="10" fill="#181425" />
<rect x="150" y="170" width="10" height="10" fill="#181425" />
<rect x="160" y="170" width="10" height="10" fill="#181425" />
<rect x="170" y="170" width="10" height="10" fill="#564645" />
<rect x="180" y="170" width="10" height="10" fill="#746361" />
<rect x="190" y="170" width="10" height="10" fill="#746361" />
<rect x="200" y="170" width="10" height="10" fill="#746361" />
<rect x="210" y="170" width="10" height="10" fill="#746361" />
<rect x="220" y="170" width="10" height="10" fill="#181425" />
<rect x="230" y="170" width="10" height="10" fill="#181425" />
<rect x="240" y="170" width="10" height="10" fill="#181425" />
<rect x="250" y="170" width="10" height="10" fill="#181425" />
<rect x="260" y="170" width="10" height="10" fill="#746361" />
<rect x="270" y="170" width="10" height="10" fill="#746361" />
<rect x="280" y="170" width="10" height="10" fill="#746361" />
<rect x="290" y="170" width="10" height="10" fill="#181425" />
<rect x="300" y="170" width="10" height="10" fill="#181425" />
<rect x="310" y="170" width="10" height="10" fill="#181425" />
<rect x="320" y="170" width="10" height="10" fill="#FEE761" />
<rect x="330" y="170" width="10" height="10" fill="#181425" />
<rect x="30" y="180" width="10" height="10" fill="#181425" />
<rect x="40" y="180" width="10" height="10" fill="#181425" />
<rect x="50" y="180" width="10" height="10" fill="#181425" />
<rect x="60" y="180" width="10" height="10" fill="#181425" />
<rect x="70" y="180" width="10" height="10" fill="#7C1A24" />
<rect x="80" y="180" width="10" height="10" fill="#7C1A24" />
<rect x="90" y="180" width="10" height="10" fill="#7C1A24" />
<rect x="100" y="180" width="10" height="10" fill="#7C1A24" />
<rect x="110" y="180" width="10" height="10" fill="#7C1A24" />
<rect x="120" y="180" width="10" height="10" fill="#181425" />
<rect x="130" y="180" width="10" height="10" fill="#181425" />
<rect x="140" y="180" width="10" height="10" fill="#564645" />
<rect x="150" y="180" width="10" height="10" fill="#564645" />
<rect x="160" y="180" width="10" height="10" fill="#564645" />
<rect x="170" y="180" width="10" height="10" fill="#564645" />
<rect x="180" y="180" width="10" height="10" fill="#746361" />
<rect x="190" y="180" width="10" height="10" fill="#746361" />
<rect x="200" y="180" width="10" height="10" fill="#746361" />
<rect x="210" y="180" width="10" height="10" fill="#746361" />
<rect x="220" y="180" width="10" height="10" fill="#746361" />
<rect x="230" y="180" width="10" height="10" fill="#746361" />
<rect x="240" y="180" width="10" height="10" fill="#746361" />
<rect x="250" y="180" width="10" height="10" fill="#746361" />
<rect x="260" y="180" width="10" height="10" fill="#746361" />
<rect x="270" y="180" width="10" height="10" fill="#746361" />
<rect x="280" y="180" width="10" height="10" fill="#746361" />
<rect x="290" y="180" width="10" height="10" fill="#746361" />
<rect x="300" y="180" width="10" height="10" fill="#746361" />
<rect x="310" y="180" width="10" height="10" fill="#181425" />
<rect x="320" y="180" width="10" height="10" fill="#181425" />
<rect x="70" y="190" width="10" height="10" fill="#181425" />
<rect x="80" y="190" width="10" height="10" fill="#181425" />
<rect x="90" y="190" width="10" height="10" fill="#181425" />
<rect x="100" y="190" width="10" height="10" fill="#181425" />
<rect x="110" y="190" width="10" height="10" fill="#181425" />
<rect x="120" y="190" width="10" height="10" fill="#181425" />
<rect x="140" y="190" width="10" height="10" fill="#181425" />
<rect x="150" y="190" width="10" height="10" fill="#564645" />
<rect x="160" y="190" width="10" height="10" fill="#564645" />
<rect x="170" y="190" width="10" height="10" fill="#181425" />
<rect x="180" y="190" width="10" height="10" fill="#746361" />
<rect x="190" y="190" width="10" height="10" fill="#746361" />
<rect x="200" y="190" width="10" height="10" fill="#746361" />
<rect x="210" y="190" width="10" height="10" fill="#181425" />
<rect x="220" y="190" width="10" height="10" fill="#181425" />
<rect x="230" y="190" width="10" height="10" fill="#746361" />
<rect x="240" y="190" width="10" height="10" fill="#746361" />
<rect x="250" y="190" width="10" height="10" fill="#181425" />
<rect x="260" y="190" width="10" height="10" fill="#181425" />
<rect x="270" y="190" width="10" height="10" fill="#746361" />
<rect x="280" y="190" width="10" height="10" fill="#746361" />
<rect x="290" y="190" width="10" height="10" fill="#746361" />
<rect x="300" y="190" width="10" height="10" fill="#181425" />
<rect x="310" y="190" width="10" height="10" fill="#181425" />
<rect x="150" y="200" width="10" height="10" fill="#181425" />
<rect x="160" y="200" width="10" height="10" fill="#181425" />
<rect x="170" y="200" width="10" height="10" fill="#746361" />
<rect x="180" y="200" width="10" height="10" fill="#746361" />
<rect x="190" y="200" width="10" height="10" fill="#746361" />
<rect x="200" y="200" width="10" height="10" fill="#181425" />
<rect x="210" y="200" width="10" height="10" fill="#FFFFFF" />
<rect x="220" y="200" width="10" height="10" fill="#C0CBDC" />
<rect x="230" y="200" width="10" height="10" fill="#181425" />
<rect x="240" y="200" width="10" height="10" fill="#181425" />
<rect x="250" y="200" width="10" height="10" fill="#FEE761" />
<rect x="260" y="200" width="10" height="10" fill="#FEE761" />
<rect x="270" y="200" width="10" height="10" fill="#181425" />
<rect x="280" y="200" width="10" height="10" fill="#181425" />
<rect x="290" y="200" width="10" height="10" fill="#181425" />
<rect x="300" y="200" width="10" height="10" fill="#FEE761" />
<rect x="310" y="200" width="10" height="10" fill="#181425" />
<rect x="160" y="210" width="10" height="10" fill="#181425" />
<rect x="170" y="210" width="10" height="10" fill="#746361" />
<rect x="180" y="210" width="10" height="10" fill="#746361" />
<rect x="190" y="210" width="10" height="10" fill="#181425" />
<rect x="200" y="210" width="10" height="10" fill="#C0CBDC" />
<rect x="210" y="210" width="10" height="10" fill="#FFFFFF" />
<rect x="220" y="210" width="10" height="10" fill="#C0CBDC" />
<rect x="230" y="210" width="10" height="10" fill="#FFFFFF" />
<rect x="240" y="210" width="10" height="10" fill="#C0CBDC" />
<rect x="250" y="210" width="10" height="10" fill="#181425" />
<rect x="260" y="210" width="10" height="10" fill="#181425" />
<rect x="270" y="210" width="10" height="10" fill="#FEE761" />
<rect x="280" y="210" width="10" height="10" fill="#FEE761" />
<rect x="290" y="210" width="10" height="10" fill="#FEE761" />
<rect x="300" y="210" width="10" height="10" fill="#181425" />
<rect x="310" y="210" width="10" height="10" fill="#181425" />
<rect x="160" y="220" width="10" height="10" fill="#181425" />
<rect x="170" y="220" width="10" height="10" fill="#746361" />
<rect x="180" y="220" width="10" height="10" fill="#746361" />
<rect x="190" y="220" width="10" height="10" fill="#C6ED69" />
<rect x="200" y="220" width="10" height="10" fill="#C6ED69" />
<rect x="210" y="220" width="10" height="10" fill="#FFFFFF" />
<rect x="220" y="220" width="10" height="10" fill="#C0CBDC" />
<rect x="230" y="220" width="10" height="10" fill="#FFFFFF" />
<rect x="240" y="220" width="10" height="10" fill="#C0CBDC" />
<rect x="250" y="220" width="10" height="10" fill="#FFFFFF" />
<rect x="260" y="220" width="10" height="10" fill="#181425" />
<rect x="270" y="220" width="10" height="10" fill="#181425" />
<rect x="280" y="220" width="10" height="10" fill="#181425" />
<rect x="290" y="220" width="10" height="10" fill="#181425" />
<rect x="300" y="220" width="10" height="10" fill="#C0CBDC" />
<rect x="310" y="220" width="10" height="10" fill="#181425" />
<rect x="170" y="230" width="10" height="10" fill="#181425" />
<rect x="180" y="230" width="10" height="10" fill="#181425" />
<rect x="190" y="230" width="10" height="10" fill="#C6ED69" />
<rect x="200" y="230" width="10" height="10" fill="#C6ED69" />
<rect x="210" y="230" width="10" height="10" fill="#C6ED69" />
<rect x="220" y="230" width="10" height="10" fill="#181425" />
<rect x="230" y="230" width="10" height="10" fill="#181425" />
<rect x="240" y="230" width="10" height="10" fill="#181425" />
<rect x="250" y="230" width="10" height="10" fill="#746361" />
<rect x="260" y="230" width="10" height="10" fill="#746361" />
<rect x="270" y="230" width="10" height="10" fill="#746361" />
<rect x="280" y="230" width="10" height="10" fill="#746361" />
<rect x="290" y="230" width="10" height="10" fill="#746361" />
<rect x="300" y="230" width="10" height="10" fill="#181425" />
<rect x="190" y="240" width="10" height="10" fill="#C6ED69" />
<rect x="200" y="240" width="10" height="10" fill="#181425" />
<rect x="210" y="240" width="10" height="10" fill="#C6ED69" />
<rect x="220" y="240" width="10" height="10" fill="#746361" />
<rect x="230" y="240" width="10" height="10" fill="#746361" />
<rect x="240" y="240" width="10" height="10" fill="#746361" />
<rect x="250" y="240" width="10" height="10" fill="#564645" />
<rect x="260" y="240" width="10" height="10" fill="#564645" />
<rect x="270" y="240" width="10" height="10" fill="#564645" />
<rect x="280" y="240" width="10" height="10" fill="#564645" />
<rect x="290" y="240" width="10" height="10" fill="#564645" />
<rect x="300" y="240" width="10" height="10" fill="#181425" />
<rect x="210" y="250" width="10" height="10" fill="#C6ED69" />
<rect x="220" y="250" width="10" height="10" fill="#181425" />
<rect x="230" y="250" width="10" height="10" fill="#181425" />
<rect x="240" y="250" width="10" height="10" fill="#746361" />
<rect x="250" y="250" width="10" height="10" fill="#746361" />
<rect x="260" y="250" width="10" height="10" fill="#746361" />
<rect x="270" y="250" width="10" height="10" fill="#746361" />
<rect x="280" y="250" width="10" height="10" fill="#746361" />
<rect x="290" y="250" width="10" height="10" fill="#746361" />
<rect x="300" y="250" width="10" height="10" fill="#181425" />
<rect x="240" y="260" width="10" height="10" fill="#181425" />
<rect x="250" y="260" width="10" height="10" fill="#181425" />
<rect x="260" y="260" width="10" height="10" fill="#746361" />
<rect x="270" y="260" width="10" height="10" fill="#746361" />
<rect x="280" y="260" width="10" height="10" fill="#746361" />
<rect x="290" y="260" width="10" height="10" fill="#181425" />
<rect x="260" y="270" width="10" height="10" fill="#181425" />
<rect x="270" y="270" width="10" height="10" fill="#181425" />
<rect x="280" y="270" width="10" height="10" fill="#181425" />
</svg>