<svg width="28" height="24" viewBox="0 0 28 24" fill="none" xmlns="http://www.w3.org/2000/svg">
<path d="M2.00985 13.7044L2.10316 13.5577L7.72983 4.75549C7.81207 4.62663 8.00539 4.63995 8.0676 4.77993C9.00761 6.8866 9.81872 9.50661 9.43873 11.1377C9.27651 11.8088 8.83207 12.7177 8.33204 13.5577C8.26763 13.68 8.19651 13.8 8.12094 13.9155C8.08538 13.9688 8.02538 13.9999 7.96092 13.9999H2.17428C2.01872 13.9999 1.92761 13.8311 2.00985 13.7044Z" fill="white"/>
<path d="M27.0898 15.34V16.7333C27.0898 16.8133 27.041 16.8844 26.9698 16.9155C26.5343 17.1022 25.0432 17.7866 24.4232 18.6489C22.841 20.8511 21.6321 24 18.9298 24H7.6565C3.66098 24 0.423187 20.7511 0.423187 16.7422V16.6133C0.423187 16.5067 0.509834 16.42 0.616511 16.42H6.90098C7.02539 16.42 7.1165 16.5356 7.10542 16.6578C7.06095 17.0666 7.13653 17.4844 7.32985 17.8644C7.70317 18.6222 8.47651 19.0956 9.31206 19.0956H12.4232V16.6667H9.34761C9.18985 16.6667 9.09654 16.4844 9.18764 16.3556C9.22095 16.3044 9.25876 16.2511 9.29873 16.1911C9.58986 15.7778 10.0054 15.1356 10.4187 14.4045C10.701 13.9111 10.9743 13.3845 11.1943 12.8556C11.2388 12.76 11.2743 12.6622 11.3098 12.5666C11.3698 12.3978 11.4321 12.24 11.4765 12.0822C11.521 11.9489 11.5565 11.8089 11.5921 11.6778C11.6965 11.2289 11.741 10.7533 11.741 10.26C11.741 10.0667 11.7321 9.86444 11.7143 9.67112C11.7054 9.46001 11.6787 9.24887 11.6521 9.03776C11.6343 8.8511 11.601 8.66665 11.5654 8.47332C11.521 8.1911 11.4587 7.91113 11.3876 7.62887L11.3632 7.52223C11.3098 7.32887 11.2654 7.14445 11.2032 6.95113C11.0276 6.34443 10.8254 5.75334 10.6121 5.20001C10.5343 4.98 10.4454 4.7689 10.3565 4.55779C10.2254 4.24001 10.0921 3.95113 9.96985 3.67778C9.90764 3.55332 9.8543 3.43999 9.80097 3.32444C9.74097 3.19332 9.67876 3.06221 9.61651 2.93779C9.57208 2.84224 9.52095 2.75334 9.48539 2.66444L9.10541 1.96222C9.05207 1.86666 9.14097 1.75332 9.24539 1.78222L11.6232 2.42665H11.6299C11.6343 2.42665 11.6365 2.4289 11.6387 2.4289L11.9521 2.51554L12.2965 2.61335L12.4232 2.64887V1.23556C12.4232 0.553323 12.9698 0 13.6454 0C13.9832 0 14.2899 0.137779 14.5099 0.362206C14.7298 0.586676 14.8676 0.893338 14.8676 1.23556V3.33335L15.121 3.40443C15.141 3.41113 15.161 3.42 15.1787 3.43332C15.241 3.48 15.3298 3.54887 15.4432 3.63335C15.5321 3.70443 15.6276 3.79112 15.7432 3.88001C15.9721 4.06443 16.2454 4.30222 16.5454 4.57557C16.6254 4.64444 16.7032 4.71556 16.7743 4.78668C17.161 5.14668 17.5943 5.56888 18.0076 6.03556C18.1232 6.16668 18.2365 6.3 18.3521 6.43999C18.4676 6.58222 18.5899 6.72221 18.6965 6.86223C18.8365 7.0489 18.9876 7.24222 19.1187 7.44445C19.181 7.54001 19.2521 7.63778 19.3121 7.73334C19.481 7.98887 19.6299 8.25335 19.7721 8.51779C19.8321 8.64 19.8943 8.77332 19.9476 8.90444C20.1054 9.25778 20.2298 9.61778 20.3098 9.97778C20.3343 10.0556 20.3521 10.14 20.361 10.2156V10.2334C20.3876 10.34 20.3965 10.4533 20.4054 10.5689C20.441 10.9378 20.4232 11.3066 20.3432 11.6778C20.3098 11.8356 20.2654 11.9844 20.2121 12.1422C20.1587 12.2933 20.1054 12.4511 20.0365 12.6C19.9032 12.9089 19.7454 13.2178 19.5587 13.5067C19.4987 13.6133 19.4276 13.7267 19.3565 13.8334C19.2787 13.9466 19.1987 14.0533 19.1276 14.1578C19.0299 14.2911 18.9254 14.4311 18.8187 14.5556C18.7232 14.6867 18.6254 14.8178 18.5187 14.9333C18.3698 15.1089 18.2276 15.2756 18.0787 15.4356C17.9899 15.54 17.8943 15.6467 17.7965 15.7422C17.701 15.8489 17.6032 15.9444 17.5143 16.0333C17.3654 16.1822 17.241 16.2978 17.1365 16.3933L16.8921 16.6178C16.8565 16.6489 16.8099 16.6667 16.761 16.6667H14.8676V19.0956H17.2498C17.7832 19.0956 18.2899 18.9067 18.6987 18.56C18.8387 18.4378 19.4499 17.9089 20.1721 17.1111C20.1965 17.0844 20.2276 17.0644 20.2632 17.0556L26.8432 15.1534C26.9654 15.1178 27.0898 15.2111 27.0898 15.34Z" fill="white"/>
</svg>
