<svg width="36" height="40" viewBox="0 0 36 40" fill="none" xmlns="http://www.w3.org/2000/svg">
<path d="M27.0107 9.65906C25.3248 8.87826 23.5458 8.32099 21.7181 8.00114C21.7015 7.99832 21.6845 8.00076 21.6694 8.0081C21.6543 8.01544 21.6418 8.02733 21.6336 8.04214C21.4045 8.45211 21.151 8.98835 20.9739 9.40816C19.0037 9.10643 16.9998 9.10643 15.0297 9.40816C14.8321 8.9405 14.6086 8.48443 14.3602 8.04214C14.3518 8.02749 14.3393 8.01574 14.3242 8.00842C14.3091 8.0011 14.2922 7.99856 14.2757 8.00114C12.4476 8.31928 10.6682 8.87684 8.98311 9.65906C8.96869 9.66461 8.95663 9.67504 8.94898 9.68858C5.57877 14.7706 4.65415 19.7279 5.10752 24.623C5.10915 24.6459 5.12377 24.6689 5.14165 24.6836C7.10418 26.1507 9.29931 27.2708 11.6335 27.9962C11.6499 28.0014 11.6676 28.0013 11.684 27.9957C11.7004 27.99 11.7145 27.9793 11.7245 27.965C12.2249 27.2763 12.6702 26.5498 13.0537 25.7856C13.0617 25.7699 13.0644 25.752 13.0615 25.7345C13.0586 25.7171 13.0501 25.7011 13.0374 25.6889C13.029 25.6809 13.0191 25.6747 13.0082 25.6708C12.3081 25.3993 11.63 25.0731 10.9802 24.6951C10.9621 24.6847 10.9486 24.6677 10.9425 24.6476C10.9365 24.6274 10.9383 24.6057 10.9477 24.5869C10.9532 24.5747 10.9616 24.564 10.9721 24.5557C11.1086 24.4524 11.2451 24.3442 11.3751 24.236C11.3866 24.2266 11.4003 24.2206 11.4149 24.2186C11.4295 24.2166 11.4444 24.2186 11.458 24.2245C15.7138 26.1858 20.3206 26.1858 24.5244 24.2245C24.5385 24.2183 24.5539 24.2162 24.5691 24.2182C24.5842 24.2202 24.5986 24.2264 24.6106 24.236C24.7406 24.3442 24.8771 24.4524 25.0136 24.5557C25.0246 24.5639 25.0335 24.5747 25.0394 24.5872C25.0453 24.5996 25.0481 24.6134 25.0475 24.6272C25.0468 24.641 25.0428 24.6544 25.0357 24.6663C25.0287 24.6781 25.0188 24.688 25.0071 24.6951C24.3587 25.0765 23.6798 25.4024 22.9775 25.6692C22.9663 25.6733 22.9561 25.6798 22.9477 25.6883C22.9392 25.6968 22.9328 25.7071 22.9287 25.7184C22.925 25.7294 22.9234 25.741 22.9243 25.7525C22.9251 25.7641 22.9283 25.7754 22.9336 25.7856C23.3236 26.5482 23.7705 27.2763 24.2612 27.965C24.2711 27.9793 24.2853 27.99 24.3016 27.9957C24.318 28.0013 24.3357 28.0014 24.3522 27.9962C26.6902 27.2731 28.8889 26.1528 30.8538 24.6836C30.8636 24.6768 30.8718 24.6677 30.8777 24.6572C30.8836 24.6467 30.8871 24.635 30.8879 24.623C31.4306 18.9637 29.9795 14.0474 27.0432 9.69022C27.0402 9.68302 27.0358 9.67653 27.0302 9.67116C27.0246 9.66579 27.0179 9.66167 27.0107 9.65906ZM13.6891 21.6417C12.4069 21.6417 11.3523 20.4544 11.3523 18.9982C11.3523 17.5403 12.3874 16.353 13.6891 16.353C15.0004 16.353 16.0453 17.5502 16.0258 18.9982C16.0258 20.4544 14.9907 21.6417 13.6891 21.6417ZM22.3275 21.6417C21.047 21.6417 19.9907 20.4544 19.9907 18.9982C19.9907 17.5403 21.0259 16.353 22.3275 16.353C23.6388 16.353 24.6853 17.5502 24.6642 18.9982C24.6642 20.4544 23.6388 21.6417 22.3275 21.6417Z" fill="white"/>
<path d="M31.6688 0C34.0064 0 35.889 1.895 36 4.1275V40L31.5516 36.2113L29.1104 33.985L26.4411 31.6537L27.552 35.3262H4.22026C1.88883 35.3262 0 33.555 0 31.1987V4.135C0 1.9025 1.89008 0.0075 4.22774 0.0075H31.6563L31.6688 0ZM21.499 9.4725H21.4466L21.1088 9.805C24.5573 10.8075 26.2255 12.37 26.2255 12.37C24.005 11.2563 21.9977 10.6962 19.9979 10.4688C18.5567 10.2475 17.1079 10.365 15.8874 10.4688H15.5495C14.7703 10.4688 13.1084 10.8075 10.8804 11.6988C10.1074 12.0375 9.65984 12.2587 9.65984 12.2587C9.65984 12.2587 11.3218 10.585 14.9972 9.69375L14.7703 9.4725C14.7703 9.4725 11.9913 9.36125 8.99158 11.5887C8.99158 11.5887 5.9919 16.83 5.9919 23.2875C5.9919 23.2875 7.65382 26.185 12.2132 26.295C12.2132 26.295 12.8815 25.41 13.551 24.6287C10.9926 23.8475 9.99273 22.285 9.99273 22.285C9.99273 22.285 10.2196 22.3962 10.5513 22.6175H10.6485C10.7009 22.6175 10.7271 22.6437 10.752 22.67V22.6825C10.7782 22.7087 10.8044 22.7275 10.8492 22.7275C11.4016 22.955 11.9464 23.1763 12.3952 23.3975C13.1744 23.73 14.1681 24.0675 15.3887 24.29C16.9346 24.5175 18.7063 24.6225 20.726 24.29C21.7197 24.0625 22.7196 23.8475 23.7195 23.3975C24.3628 23.065 25.1607 22.7337 26.0372 22.1675C26.0372 22.1675 25.0435 23.73 22.3742 24.5112C22.9203 25.2862 23.6921 26.1775 23.6921 26.1775C28.2564 26.0737 30.0293 23.1762 30.1265 23.3C30.1265 16.8487 27.1069 11.6012 27.1069 11.6012C24.3927 9.57625 21.8469 9.49875 21.3993 9.49875L21.4903 9.46625L21.499 9.4725ZM21.7783 16.83C22.9477 16.83 23.889 17.8263 23.889 19.05C23.889 20.2875 22.9415 21.2825 21.7783 21.2825C20.6088 21.2825 19.6675 20.2862 19.6675 19.0625C19.6675 17.825 20.6151 16.83 21.7783 16.83ZM14.2267 16.83C15.3887 16.83 16.3312 17.8263 16.3312 19.05C16.3312 20.2875 15.3837 21.2825 14.2205 21.2825C13.051 21.2825 12.1035 20.2862 12.1035 19.0625C12.1035 17.825 13.051 16.83 14.2205 16.83H14.2267Z" fill="#282932"/>
</svg>
