<svg width="32" height="24" viewBox="0 0 32 24" fill="none" xmlns="http://www.w3.org/2000/svg">
<path d="M26.7449 1.98947C24.738 1.06863 22.5859 0.390197 20.3358 0.00162999C20.2948 -0.00586923 20.2539 0.0128717 20.2328 0.0503545C19.956 0.54262 19.6495 1.18482 19.4348 1.68959C17.0146 1.32727 14.6069 1.32727 12.2364 1.68959C12.0216 1.1736 11.7039 0.54262 11.4259 0.0503545C11.4048 0.0141223 11.3639 -0.00461862 11.3229 0.00162999C9.074 0.388955 6.92193 1.06739 4.91382 1.98947C4.89643 1.99696 4.88153 2.00947 4.87164 2.0257C0.789623 8.12415 -0.328613 14.0727 0.219956 19.9475C0.222438 19.9762 0.238573 20.0037 0.260913 20.0212C2.95411 21.999 5.56294 23.1998 8.12332 23.9956C8.16429 24.0081 8.20771 23.9931 8.23379 23.9594C8.83944 23.1323 9.37934 22.2602 9.84224 21.3431C9.86956 21.2894 9.84348 21.2257 9.78765 21.2044C8.93129 20.8796 8.11587 20.4835 7.33148 20.0337C7.26944 19.9975 7.26448 19.9087 7.32155 19.8663C7.48661 19.7426 7.65172 19.6139 7.80933 19.4839C7.83785 19.4602 7.87758 19.4552 7.91111 19.4702C13.0642 21.8229 18.6429 21.8229 23.7352 19.4702C23.7687 19.454 23.8084 19.459 23.8382 19.4827C23.9959 19.6126 24.1609 19.7426 24.3272 19.8663C24.3843 19.9087 24.3806 19.9975 24.3185 20.0337C23.5341 20.4922 22.7187 20.8796 21.8611 21.2032C21.8053 21.2244 21.7805 21.2894 21.8078 21.3431C22.2806 22.2589 22.8205 23.131 23.415 23.9582C23.4398 23.9931 23.4845 24.0081 23.5255 23.9956C26.0983 23.1998 28.7071 21.999 31.4003 20.0212C31.4239 20.0037 31.4388 19.9775 31.4412 19.9488C32.0978 13.1568 30.3416 7.25706 26.7858 2.02694C26.7771 2.00947 26.7623 1.99696 26.7449 1.98947ZM10.6118 16.3704C9.06034 16.3704 7.78201 14.946 7.78201 13.1968C7.78201 11.4476 9.03555 10.0233 10.6118 10.0233C12.2003 10.0233 13.4663 11.4601 13.4415 13.1968C13.4415 14.946 12.1879 16.3704 10.6118 16.3704ZM21.0743 16.3704C19.5229 16.3704 18.2446 14.946 18.2446 13.1968C18.2446 11.4476 19.498 10.0233 21.0743 10.0233C22.6629 10.0233 23.9288 11.4601 23.904 13.1968C23.904 14.946 22.6629 16.3704 21.0743 16.3704Z" fill="white"/>
</svg>
