<svg width="40" height="40" viewBox="0 0 40 40" fill="none" xmlns="http://www.w3.org/2000/svg">
<path d="M0 5C0 2.23858 2.23858 0 5 0H35C37.7614 0 40 2.23858 40 5V35C40 37.7614 37.7614 40 35 40H5C2.23858 40 0 37.7614 0 35V5Z" fill="#282932"/>
<path d="M20.6106 4.69261C22.2927 4.66663 23.9653 4.68203 25.6359 4.66663C25.7371 6.63119 26.4447 8.63234 27.8849 10.0213C29.3222 11.4449 31.3553 12.0966 33.3334 12.317V17.4849C31.4797 17.4243 29.6172 17.0393 27.935 16.2423C27.2024 15.9111 26.5199 15.4847 25.8518 15.0487C25.8432 18.7988 25.8673 22.5441 25.8277 26.2788C25.7275 28.073 25.1346 29.8585 24.0896 31.337C22.4084 33.7982 19.4904 35.4028 16.4933 35.4529C14.655 35.5578 12.8185 35.0573 11.252 34.1351C8.65599 32.6066 6.8292 29.8085 6.56314 26.8053C6.52963 26.1693 6.52448 25.5321 6.54772 24.8956C6.77908 22.4536 7.9889 20.1175 9.86677 18.5283C11.9953 16.6773 14.9769 15.7956 17.7687 16.3173C17.7947 18.2184 17.7186 20.1175 17.7186 22.0185C16.4432 21.6066 14.9528 21.7221 13.8385 22.495C13.0231 23.0313 12.407 23.8203 12.0849 24.7406C11.8189 25.3913 11.895 26.1142 11.9105 26.8053C12.216 28.9114 14.2443 30.6815 16.4094 30.49C17.8448 30.4746 19.2205 29.6429 19.9685 28.4253C20.2105 27.9989 20.4814 27.5628 20.4958 27.0613C20.6221 24.7657 20.572 22.4796 20.5874 20.1839C20.598 15.0102 20.572 9.85093 20.6115 4.69358L20.6106 4.69261Z" fill="white"/>
</svg>
