<svg width="25" height="24" viewBox="0 0 25 24" fill="none" xmlns="http://www.w3.org/2000/svg">
<g clip-path="url(#clip0_604_62)">
<path d="M7.63736 21.7507C16.694 21.7507 21.6476 14.2473 21.6476 7.74044C21.6476 7.52732 21.6476 7.31517 21.6332 7.10396C22.5969 6.40692 23.4287 5.54385 24.0898 4.55516C23.1912 4.95357 22.2379 5.21472 21.2617 5.32988C22.2896 4.71457 23.059 3.74667 23.4265 2.60636C22.4599 3.17997 21.4025 3.58419 20.2998 3.80156C19.5573 3.01214 18.5755 2.48941 17.506 2.31425C16.4366 2.13909 15.3393 2.32128 14.3838 2.83262C13.4284 3.34396 12.6681 4.15594 12.2206 5.14291C11.7731 6.12989 11.6634 7.23683 11.9084 8.29244C9.95073 8.19424 8.03559 7.68548 6.28729 6.79917C4.53899 5.91286 2.9966 4.66882 1.76024 3.1478C1.13056 4.2318 0.937708 5.51503 1.22094 6.73623C1.50416 7.95742 2.24218 9.02476 3.28472 9.72092C2.50107 9.69796 1.73448 9.48656 1.04984 9.1046V9.167C1.05015 10.3039 1.44369 11.4056 2.16371 12.2854C2.88373 13.1651 3.8859 13.7688 5.00024 13.9939C4.27532 14.1916 3.51471 14.2205 2.77688 14.0784C3.09165 15.0567 3.70426 15.9122 4.52908 16.5253C5.35389 17.1384 6.34966 17.4784 7.3772 17.4979C6.35627 18.3004 5.18715 18.8937 3.93671 19.2439C2.68627 19.5941 1.37905 19.6943 0.0898361 19.5388C2.34167 20.9839 4.96176 21.7504 7.63736 21.7468" fill="white"/>
</g>
<defs>
<clipPath id="clip0_604_62">
<rect width="24" height="24" fill="white" transform="translate(0.0898361)"/>
</clipPath>
</defs>
</svg>
