<svg width="40" height="40" viewBox="0 0 40 40" fill="none" xmlns="http://www.w3.org/2000/svg">
<path d="M33 11.4945C32.0439 11.9046 31.0034 12.1997 29.9316 12.3147C31.0443 11.6574 31.8776 10.6191 32.2751 9.39454C31.2309 10.0121 30.0871 10.4451 28.8942 10.6744C28.3957 10.1445 27.7927 9.7224 27.1229 9.43433C26.4531 9.14625 25.7308 8.99841 25.001 9.00001C22.0482 9.00001 19.6735 11.3796 19.6735 14.2997C19.6735 14.7098 19.7235 15.1198 19.8047 15.5144C15.3834 15.2845 11.4401 13.1845 8.81853 9.96924C8.34086 10.7804 8.09054 11.704 8.09362 12.6439C8.09362 14.483 9.03413 16.1046 10.4683 17.0583C9.62314 17.0252 8.79773 16.7942 8.05925 16.3842V16.4494C8.05925 19.0247 9.89028 21.1589 12.3306 21.6497C11.8724 21.768 11.4011 21.8286 10.9277 21.8299C10.5808 21.8299 10.2527 21.7957 9.92152 21.7491C10.5964 23.8491 12.5618 25.3744 14.9022 25.4241C13.0711 26.85 10.7777 27.6888 8.28735 27.6888C7.84052 27.6888 7.42807 27.6732 7 27.6235C9.36222 29.1302 12.165 30 15.1834 30C24.9822 30 30.3441 21.9293 30.3441 14.9241C30.3441 14.6942 30.3441 14.4644 30.3284 14.2345C31.3658 13.4796 32.2751 12.5445 33 11.4945Z" fill="white"/>
<path d="M20 0C8.95536 0 0 8.95536 0 20C0 31.0446 8.95536 40 20 40C31.0446 40 40 31.0446 40 20C40 8.95536 31.0446 0 20 0ZM29.6116 15.0759C29.625 15.2857 29.625 15.5045 29.625 15.7188C29.625 22.2723 24.6339 29.8214 15.5134 29.8214C12.7009 29.8214 10.0938 29.0045 7.89732 27.5982C8.29911 27.6429 8.68304 27.6607 9.09375 27.6607C11.4152 27.6607 13.5491 26.875 15.25 25.5446C13.0714 25.5 11.2411 24.0714 10.6161 22.1071C11.3795 22.2188 12.067 22.2188 12.8527 22.0179C11.7309 21.79 10.7227 21.1807 9.99918 20.2937C9.2757 19.4066 8.88164 18.2965 8.88393 17.1518V17.0893C9.54018 17.4598 10.3125 17.6875 11.1205 17.7188C10.4413 17.266 9.88419 16.6527 9.49871 15.9332C9.11323 15.2136 8.91127 14.4101 8.91072 13.5938C8.91072 12.6696 9.15179 11.8259 9.58482 11.0938C10.8299 12.6265 12.3836 13.8801 14.1449 14.7731C15.9062 15.666 17.8358 16.1784 19.808 16.2768C19.1071 12.9063 21.625 10.1786 24.6518 10.1786C26.0804 10.1786 27.3661 10.7768 28.2723 11.7411C29.3929 11.5312 30.4643 11.1116 31.4196 10.5491C31.0491 11.6964 30.2723 12.6652 29.2411 13.2768C30.2411 13.1696 31.2054 12.8929 32.0982 12.5045C31.4241 13.4955 30.5804 14.375 29.6116 15.0759Z" fill="#282932"/>
</svg>
