<svg width="56" height="56" viewBox="0 0 56 56" fill="none" xmlns="http://www.w3.org/2000/svg">
<g clip-path="url(#clip0_635_477)">
<path d="M54.8848 14.4327C54.5682 13.2413 53.9442 12.154 53.0753 11.2796C52.2065 10.4051 51.1232 9.77421 49.9338 9.44998C45.5557 8.27271 28.0557 8.27271 28.0557 8.27271C28.0557 8.27271 10.5557 8.27271 6.17748 9.44998C4.98817 9.77421 3.90487 10.4051 3.036 11.2796C2.16713 12.154 1.54318 13.2413 1.22657 14.4327C0.0556642 18.83 0.0556641 28 0.0556641 28C0.0556641 28 0.0556642 37.17 1.22657 41.5672C1.54318 42.7586 2.16713 43.8459 3.036 44.7204C3.90487 45.5948 4.98817 46.2257 6.17748 46.55C10.5557 47.7272 28.0557 47.7272 28.0557 47.7272C28.0557 47.7272 45.5557 47.7272 49.9338 46.55C51.1232 46.2257 52.2065 45.5948 53.0753 44.7204C53.9442 43.8459 54.5682 42.7586 54.8848 41.5672C56.0557 37.17 56.0557 28 56.0557 28C56.0557 28 56.0557 18.83 54.8848 14.4327Z" fill="white"/>
<path d="M22.3281 36.3269V19.6732L36.9645 28L22.3281 36.3269Z" fill="#191B1F"/>
</g>
<defs>
<clipPath id="clip0_635_477">
<rect width="56" height="56" fill="white"/>
</clipPath>
</defs>
</svg>
