<svg id="svg" version="1.1" xmlns="http://www.w3.org/2000/svg" xmlns:xlink="http://www.w3.org/1999/xlink" width="400" height="399.8223011994669" viewBox="0, 0, 400,399.8223011994669"><g id="svgg"><path id="path0" d="M260.151 68.706 C 251.959 69.459,245.406 73.841,241.453 81.208 C 240.735 82.547,239.005 87.389,239.005 88.061 C 239.005 88.406,239.166 88.441,235.657 87.332 C 231.910 86.149,226.348 84.736,223.545 84.256 C 222.421 84.064,220.302 83.703,218.836 83.455 C 211.166 82.155,200.651 81.734,193.603 82.445 C 192.625 82.544,190.746 82.708,189.427 82.810 C 187.454 82.962,184.704 83.326,181.964 83.796 C 181.719 83.838,180.320 84.073,178.854 84.318 C 169.623 85.861,158.168 89.418,149.267 93.504 C 146.202 94.912,141.039 97.536,139.831 98.301 C 139.088 98.771,138.431 99.156,138.371 99.156 C 138.144 99.156,130.336 104.271,129.434 105.011 C 129.129 105.260,128.330 105.860,127.657 106.344 C 125.087 108.191,119.901 112.725,116.557 116.048 C 113.432 119.154,108.309 125.019,106.431 127.641 C 106.095 128.110,105.518 128.910,105.149 129.418 C 104.182 130.749,100.577 136.201,99.857 137.420 C 95.629 144.577,93.176 149.756,90.259 157.680 C 80.161 185.110,80.582 218.021,91.373 244.711 L 91.920 246.063 91.553 247.110 C 91.351 247.685,90.818 249.156,90.367 250.378 C 89.916 251.599,89.196 253.558,88.767 254.731 C 88.338 255.904,87.572 257.983,87.064 259.351 C 86.051 262.084,84.920 265.224,83.866 268.236 C 83.490 269.311,82.771 271.311,82.268 272.679 C 81.766 274.047,81.007 276.126,80.583 277.299 C 80.158 278.472,79.397 280.551,78.893 281.919 C 78.389 283.287,77.670 285.247,77.296 286.273 C 76.922 287.299,76.201 289.258,75.695 290.626 C 74.467 293.944,74.299 294.597,74.170 296.579 C 73.751 302.988,77.905 309.234,83.963 311.302 L 85.562 311.848 85.670 314.121 C 86.338 328.168,100.428 334.720,111.062 325.928 C 113.402 323.992,115.695 321.059,118.023 317.019 L 118.993 315.336 120.420 315.390 C 127.300 315.651,133.065 310.243,135.739 301.022 C 136.303 299.078,136.453 298.973,137.578 299.738 C 140.534 301.747,148.550 305.734,154.154 307.984 C 160.688 310.606,169.838 313.438,174.145 314.171 C 174.780 314.279,176.699 314.640,178.410 314.973 C 190.998 317.423,204.102 317.958,215.104 316.471 C 222.423 315.482,225.690 314.853,231.275 313.358 C 238.932 311.308,245.934 308.599,253.896 304.606 C 255.391 303.856,256.830 303.135,257.094 303.003 C 257.748 302.677,260.694 300.942,262.096 300.057 C 264.215 298.720,266.099 297.493,266.726 297.042 C 267.068 296.797,268.114 296.052,269.051 295.388 C 269.987 294.724,271.027 293.956,271.361 293.681 C 271.695 293.407,273.048 292.337,274.367 291.304 C 281.059 286.066,288.056 278.870,294.358 270.743 C 298.580 265.298,304.151 256.291,305.652 252.484 C 306.083 251.390,306.048 251.419,307.685 250.800 C 311.471 249.370,313.748 248.503,315.415 247.860 C 316.442 247.464,318.081 246.832,319.058 246.455 C 320.036 246.078,322.754 245.016,325.100 244.093 C 327.446 243.171,330.644 241.923,332.208 241.320 C 337.429 239.307,338.241 238.946,339.760 237.961 C 346.163 233.808,348.136 225.435,344.112 219.496 L 343.716 218.911 344.149 217.839 C 348.124 207.998,340.346 196.910,329.454 196.889 L 328.121 196.886 327.410 195.526 C 325.726 192.301,322.978 190.168,319.414 189.316 C 318.729 189.152,318.081 188.997,317.972 188.971 C 317.859 188.944,317.720 188.286,317.650 187.443 C 317.581 186.628,317.331 184.482,317.094 182.674 C 316.856 180.866,316.613 178.987,316.553 178.498 C 314.939 165.332,308.149 147.441,300.348 135.800 C 298.634 133.242,296.193 129.947,295.104 128.719 C 294.681 128.244,294.220 127.685,294.079 127.477 C 293.939 127.270,292.802 125.970,291.553 124.588 L 289.283 122.077 289.533 121.145 C 289.671 120.633,290.063 119.254,290.404 118.081 C 292.553 110.696,292.870 108.280,292.071 105.375 C 291.170 102.102,288.290 98.646,285.498 97.488 C 284.912 97.244,284.827 97.142,284.918 96.783 C 288.592 82.142,275.497 67.296,260.151 68.706 M266.015 77.825 C 272.802 79.746,276.881 85.170,276.845 92.226 C 276.831 95.050,276.799 95.183,272.382 110.795 C 270.923 115.950,270.781 117.061,271.526 117.460 C 272.336 117.894,273.373 116.234,274.259 113.087 C 276.172 106.291,278.470 103.846,281.658 105.217 C 283.902 106.182,284.472 108.482,283.369 112.128 C 282.868 113.788,281.939 117.038,280.680 121.546 C 280.229 123.159,279.467 125.837,278.987 127.499 C 278.507 129.160,277.758 131.759,277.323 133.274 C 276.888 134.789,276.205 137.148,275.807 138.516 C 274.514 142.949,272.977 148.445,271.705 153.176 C 271.403 154.300,271.000 155.700,270.809 156.286 C 270.619 156.873,270.229 158.232,269.942 159.307 C 269.656 160.382,269.185 162.061,268.896 163.039 C 268.606 164.016,268.192 165.455,267.974 166.237 C 267.756 167.019,267.356 168.418,267.085 169.347 C 266.166 172.492,265.151 176.001,264.491 178.321 C 262.563 185.091,262.225 186.300,261.753 188.094 C 261.471 189.169,261.042 190.665,260.800 191.419 C 260.558 192.172,260.306 193.052,260.241 193.374 C 260.175 193.695,259.774 195.158,259.349 196.624 C 258.925 198.090,258.162 200.769,257.653 202.577 C 257.145 204.385,256.425 206.904,256.054 208.174 C 255.683 209.445,254.922 212.084,254.363 214.038 C 253.804 215.993,253.077 218.507,252.748 219.624 C 251.780 222.906,251.743 223.900,252.588 223.900 C 253.169 223.900,253.974 222.925,255.816 219.991 C 261.381 211.123,261.076 211.423,265.837 210.134 C 267.157 209.776,269.476 209.134,270.991 208.706 C 272.506 208.279,274.944 207.600,276.410 207.199 C 283.712 205.198,285.822 204.618,287.783 204.073 C 288.956 203.746,290.675 203.286,291.604 203.049 C 292.532 202.813,294.931 202.162,296.935 201.603 C 298.938 201.043,301.537 200.322,302.710 199.999 C 303.883 199.676,306.312 199.005,308.108 198.507 C 315.277 196.522,317.750 196.587,319.443 198.806 C 321.728 201.803,319.833 204.892,314.616 206.674 C 313.541 207.042,312.101 207.546,311.417 207.795 C 310.733 208.045,309.534 208.420,308.752 208.629 C 306.642 209.194,304.398 210.280,304.398 210.736 C 304.398 211.941,307.781 211.230,321.813 207.075 C 323.327 206.626,325.340 206.028,326.284 205.744 C 331.846 204.076,336.562 207.107,336.562 212.351 C 336.562 215.976,334.576 217.810,328.865 219.458 C 323.024 221.144,319.963 222.606,320.835 223.294 C 321.329 223.684,322.412 223.539,326.522 222.532 C 333.884 220.730,337.468 222.043,337.524 226.566 C 337.559 229.330,336.189 230.690,331.519 232.525 C 325.155 235.027,319.827 237.095,317.548 237.947 C 316.815 238.221,315.695 238.654,315.060 238.908 C 314.425 239.163,313.185 239.646,312.306 239.983 C 307.949 241.651,303.374 243.417,301.377 244.203 C 293.687 247.227,289.684 248.780,287.961 249.409 C 287.081 249.730,285.962 250.151,285.473 250.344 C 284.984 250.537,283.745 251.017,282.719 251.409 C 278.757 252.925,275.115 254.339,273.923 254.825 C 272.358 255.463,267.635 257.314,264.149 258.656 C 262.683 259.220,260.364 260.117,258.996 260.648 C 257.628 261.179,256.068 261.769,255.531 261.959 C 254.347 262.377,250.675 263.788,247.890 264.894 C 246.766 265.341,245.167 265.969,244.336 266.291 C 243.505 266.613,241.986 267.215,240.960 267.629 C 239.933 268.042,238.494 268.604,237.761 268.876 C 237.028 269.148,235.069 269.899,233.407 270.544 C 231.746 271.189,229.867 271.907,229.231 272.139 C 228.596 272.371,226.952 272.998,225.578 273.531 C 220.251 275.599,216.316 275.704,211.807 273.900 C 205.207 271.258,200.862 264.333,201.401 257.314 C 201.526 255.693,201.604 255.337,202.762 251.088 C 203.174 249.574,203.773 247.335,204.091 246.113 C 204.678 243.863,205.105 242.302,206.670 236.695 C 209.297 227.286,210.321 223.598,210.842 221.679 C 211.160 220.506,211.625 218.827,211.876 217.948 C 212.678 215.132,213.929 210.513,214.139 209.596 C 214.250 209.107,214.605 207.788,214.927 206.664 C 215.250 205.540,215.875 203.301,216.317 201.688 C 218.921 192.184,219.700 189.365,221.499 182.941 C 222.019 181.084,222.730 178.525,223.078 177.255 C 223.426 175.984,224.068 173.665,224.505 172.101 C 224.942 170.538,225.426 168.703,225.582 168.025 C 225.738 167.347,226.098 166.028,226.381 165.093 C 226.665 164.159,226.950 163.114,227.015 162.772 C 227.080 162.430,227.435 161.111,227.804 159.840 C 228.173 158.570,228.890 156.011,229.399 154.154 C 229.907 152.297,230.638 149.658,231.022 148.290 C 231.407 146.921,231.841 145.362,231.986 144.825 C 232.131 144.287,232.563 142.728,232.945 141.359 C 234.126 137.132,234.912 134.294,235.183 133.274 C 235.326 132.737,235.651 131.537,235.905 130.609 C 236.159 129.680,236.589 128.081,236.860 127.055 C 237.132 126.028,237.609 124.269,237.920 123.145 C 238.231 122.021,238.837 119.822,239.266 118.259 C 239.695 116.695,240.262 114.656,240.526 113.727 C 240.789 112.799,241.305 110.920,241.672 109.551 C 242.038 108.183,242.585 106.224,242.886 105.198 C 243.737 102.296,246.107 93.747,246.580 91.870 C 247.447 88.435,248.235 86.186,249.041 84.851 C 249.277 84.460,249.630 83.852,249.826 83.500 C 251.198 81.023,255.846 78.022,259.263 77.404 C 260.443 77.191,264.717 77.457,266.015 77.825 M204.976 116.247 C 210.837 117.561,213.283 123.705,211.642 132.990 C 211.144 135.805,211.200 137.075,211.826 137.147 C 212.626 137.241,213.018 136.354,214.236 131.708 C 214.372 131.189,214.635 130.429,214.820 130.020 C 215.005 129.611,215.371 128.762,215.634 128.135 C 218.185 122.043,225.157 123.135,225.186 129.631 C 225.193 131.087,225.060 131.689,223.381 137.805 C 223.006 139.174,222.283 141.813,221.776 143.669 C 221.269 145.526,220.651 147.765,220.404 148.645 C 220.157 149.525,219.567 151.724,219.093 153.532 C 218.618 155.340,217.863 158.179,217.415 159.840 C 216.966 161.502,216.398 163.661,216.151 164.638 C 215.905 165.615,215.385 167.574,214.996 168.992 C 213.310 175.133,213.018 176.199,212.080 179.653 C 210.756 184.525,209.615 188.683,208.860 191.382 C 208.518 192.603,208.010 194.482,207.731 195.558 C 207.452 196.633,207.049 198.152,206.836 198.934 C 206.623 199.716,206.225 201.195,205.953 202.221 C 204.256 208.616,204.043 209.404,202.399 215.371 C 201.927 217.081,201.126 220.000,200.619 221.857 C 200.111 223.714,199.431 226.153,199.109 227.277 C 198.786 228.401,198.268 230.280,197.958 231.453 C 197.649 232.625,197.211 234.225,196.986 235.007 C 196.760 235.789,196.158 237.988,195.648 239.893 C 195.137 241.799,194.519 244.078,194.274 244.958 C 194.029 245.837,193.608 247.397,193.340 248.423 C 193.071 249.449,192.600 251.168,192.294 252.243 C 191.987 253.319,191.182 256.168,190.504 258.576 C 187.977 267.546,184.887 271.575,178.666 274.007 C 165.914 278.993,156.076 270.024,153.816 251.355 C 153.339 247.412,152.649 236.618,152.645 233.040 C 152.639 226.880,150.637 226.271,149.181 231.986 C 148.694 233.895,147.825 236.771,146.873 239.627 C 145.569 243.538,140.379 259.671,138.613 265.304 C 137.591 268.563,134.937 276.843,132.831 283.341 C 131.817 286.468,130.292 291.226,129.441 293.914 C 127.194 301.009,126.518 302.648,125.010 304.659 C 123.036 307.292,119.826 307.562,118.106 305.241 L 117.744 304.752 118.333 302.842 C 120.248 296.641,121.240 291.382,120.514 291.279 C 119.671 291.160,119.007 292.307,118.090 295.471 C 113.374 311.742,106.737 321.572,100.690 321.243 C 92.650 320.805,92.110 308.696,99.491 294.358 C 100.065 293.243,100.193 292.356,99.831 291.995 C 99.255 291.418,98.562 292.017,97.444 294.057 C 93.600 301.072,92.206 302.794,89.877 303.400 C 87.325 304.065,84.361 302.410,83.283 299.719 C 82.402 297.517,82.594 296.264,84.646 290.804 C 85.944 287.349,88.452 280.545,89.590 277.388 C 90.171 275.775,90.914 273.736,91.241 272.857 C 91.568 271.977,92.173 270.298,92.586 269.125 C 93.646 266.110,94.557 263.584,95.436 261.217 C 95.853 260.093,96.455 258.454,96.773 257.574 C 97.473 255.639,98.790 252.055,100.039 248.689 C 100.547 247.321,101.229 245.442,101.555 244.514 C 101.881 243.585,102.510 241.826,102.953 240.604 C 105.013 234.925,105.799 232.749,106.355 231.186 C 106.685 230.258,107.371 228.378,107.878 227.010 C 110.833 219.035,111.931 216.047,113.229 212.439 C 113.721 211.071,114.242 209.591,114.386 209.151 C 114.530 208.712,114.875 207.752,115.153 207.019 C 115.721 205.520,118.222 198.666,119.238 195.824 C 119.605 194.798,120.107 193.438,120.354 192.803 C 120.800 191.655,121.272 190.370,123.679 183.741 C 124.371 181.835,125.092 179.876,125.282 179.387 C 125.472 178.898,125.796 177.939,126.003 177.255 C 126.209 176.570,126.487 175.771,126.620 175.478 C 126.754 175.184,127.218 173.945,127.653 172.723 C 128.087 171.502,128.738 169.702,129.099 168.725 C 129.459 167.748,130.178 165.789,130.696 164.371 C 133.123 157.728,133.023 157.933,134.217 157.195 C 135.447 156.434,136.484 156.387,137.715 157.034 C 139.977 158.223,140.188 160.205,138.514 164.549 C 137.167 168.044,136.930 169.702,137.778 169.702 C 138.505 169.702,139.473 168.306,141.384 164.503 C 142.035 163.209,143.106 161.151,143.764 159.929 C 144.423 158.707,145.719 156.228,146.645 154.420 C 147.571 152.612,148.551 150.712,148.824 150.197 C 151.847 144.495,160.549 143.847,164.608 149.021 C 166.252 151.115,169.076 156.421,170.511 160.107 C 170.872 161.035,171.318 162.130,171.501 162.540 C 171.685 162.950,171.835 163.372,171.835 163.476 C 171.835 163.581,172.041 164.246,172.293 164.952 C 172.545 165.659,172.773 166.317,172.799 166.415 C 172.826 166.513,172.896 166.713,172.956 166.859 C 173.757 168.834,176.189 178.644,177.447 184.984 C 178.577 190.676,178.516 190.442,178.942 190.670 C 180.227 191.358,180.316 190.573,180.445 177.432 C 180.518 169.949,180.554 169.160,180.874 168.103 C 181.067 167.468,181.318 166.468,181.433 165.882 C 181.548 165.295,181.800 164.256,181.993 163.572 C 182.444 161.977,183.838 156.608,184.369 154.420 C 184.594 153.492,184.940 152.132,185.137 151.399 C 185.770 149.040,187.120 143.931,187.929 140.826 C 188.674 137.966,189.853 133.475,191.264 128.121 C 192.534 123.304,193.792 120.682,195.745 118.782 C 198.208 116.388,201.531 115.475,204.976 116.247 " stroke="none" fill="#fbfbfb" fill-rule="evenodd"></path><path id="path1" d="M0.000 199.911 L 0.000 399.822 200.000 399.822 L 400.000 399.822 400.000 199.911 L 400.000 0.000 200.000 0.000 L 0.000 0.000 0.000 199.911 M266.070 69.058 C 279.405 71.575,288.052 84.294,284.918 96.783 C 284.827 97.142,284.912 97.244,285.498 97.488 C 288.290 98.646,291.170 102.102,292.071 105.375 C 292.870 108.280,292.553 110.696,290.404 118.081 C 290.063 119.254,289.671 120.633,289.533 121.145 L 289.283 122.077 291.553 124.588 C 292.802 125.970,293.939 127.270,294.079 127.477 C 294.220 127.685,294.681 128.244,295.104 128.719 C 296.193 129.947,298.634 133.242,300.348 135.800 C 308.149 147.441,314.939 165.332,316.553 178.498 C 316.613 178.987,316.856 180.866,317.094 182.674 C 317.331 184.482,317.581 186.628,317.650 187.443 C 317.720 188.286,317.859 188.944,317.972 188.971 C 318.081 188.997,318.729 189.152,319.414 189.316 C 322.978 190.168,325.726 192.301,327.410 195.526 L 328.121 196.886 329.454 196.889 C 340.346 196.910,348.124 207.998,344.149 217.839 L 343.716 218.911 344.112 219.496 C 348.136 225.435,346.163 233.808,339.760 237.961 C 338.241 238.946,337.429 239.307,332.208 241.320 C 330.644 241.923,327.446 243.171,325.100 244.093 C 322.754 245.016,320.036 246.078,319.058 246.455 C 318.081 246.832,316.442 247.464,315.415 247.860 C 313.748 248.503,311.471 249.370,307.685 250.800 C 306.048 251.419,306.083 251.390,305.652 252.484 C 304.690 254.925,301.866 259.868,298.784 264.505 C 296.472 267.984,295.373 269.479,292.061 273.654 C 287.427 279.493,280.032 286.870,274.367 291.304 C 273.048 292.337,271.695 293.407,271.361 293.681 C 271.027 293.956,269.987 294.724,269.051 295.388 C 268.114 296.052,267.068 296.797,266.726 297.042 C 266.099 297.493,264.215 298.720,262.096 300.057 C 260.694 300.942,257.748 302.677,257.094 303.003 C 256.830 303.135,255.391 303.856,253.896 304.606 C 245.934 308.599,238.932 311.308,231.275 313.358 C 225.690 314.853,222.423 315.482,215.104 316.471 C 204.102 317.958,190.998 317.423,178.410 314.973 C 176.699 314.640,174.780 314.279,174.145 314.171 C 169.838 313.438,160.688 310.606,154.154 307.984 C 148.550 305.734,140.534 301.747,137.578 299.738 C 136.453 298.973,136.303 299.078,135.739 301.022 C 133.065 310.243,127.300 315.651,120.420 315.390 L 118.993 315.336 118.023 317.019 C 115.695 321.059,113.402 323.992,111.062 325.928 C 100.428 334.720,86.338 328.168,85.670 314.121 L 85.562 311.848 83.963 311.302 C 77.905 309.234,73.751 302.988,74.170 296.579 C 74.299 294.597,74.467 293.944,75.695 290.626 C 76.201 289.258,76.922 287.299,77.296 286.273 C 77.670 285.247,78.389 283.287,78.893 281.919 C 79.397 280.551,80.158 278.472,80.583 277.299 C 81.007 276.126,81.766 274.047,82.268 272.679 C 82.771 271.311,83.490 269.311,83.866 268.236 C 84.920 265.224,86.051 262.084,87.064 259.351 C 87.572 257.983,88.338 255.904,88.767 254.731 C 89.196 253.558,89.916 251.599,90.367 250.378 C 90.818 249.156,91.351 247.685,91.553 247.110 L 91.920 246.063 91.373 244.711 C 83.951 226.353,81.479 205.948,83.969 183.587 C 85.235 172.212,89.172 158.690,94.478 147.490 C 96.225 143.802,97.526 141.366,99.857 137.420 C 100.577 136.201,104.182 130.749,105.149 129.418 C 105.518 128.910,106.095 128.110,106.431 127.641 C 108.309 125.019,113.432 119.154,116.557 116.048 C 119.901 112.725,125.087 108.191,127.657 106.344 C 128.330 105.860,129.129 105.260,129.434 105.011 C 130.336 104.271,138.144 99.156,138.371 99.156 C 138.431 99.156,139.088 98.771,139.831 98.301 C 141.039 97.536,146.202 94.912,149.267 93.504 C 158.168 89.418,169.623 85.861,178.854 84.318 C 180.320 84.073,181.719 83.838,181.964 83.796 C 184.704 83.326,187.454 82.962,189.427 82.810 C 190.746 82.708,192.625 82.544,193.603 82.445 C 200.651 81.734,211.166 82.155,218.836 83.455 C 220.302 83.703,222.421 84.064,223.545 84.256 C 226.348 84.736,231.910 86.149,235.657 87.332 C 239.166 88.441,239.005 88.406,239.005 88.061 C 239.005 87.389,240.735 82.547,241.453 81.208 C 246.422 71.947,256.090 67.175,266.070 69.058 M259.263 77.404 C 255.846 78.022,251.198 81.023,249.826 83.500 C 249.630 83.852,249.277 84.460,249.041 84.851 C 248.235 86.186,247.447 88.435,246.580 91.870 C 246.107 93.747,243.737 102.296,242.886 105.198 C 242.585 106.224,242.038 108.183,241.672 109.551 C 241.305 110.920,240.789 112.799,240.526 113.727 C 240.262 114.656,239.695 116.695,239.266 118.259 C 238.837 119.822,238.231 122.021,237.920 123.145 C 237.609 124.269,237.132 126.028,236.860 127.055 C 236.589 128.081,236.159 129.680,235.905 130.609 C 235.651 131.537,235.326 132.737,235.183 133.274 C 234.912 134.294,234.126 137.132,232.945 141.359 C 232.563 142.728,232.131 144.287,231.986 144.825 C 231.841 145.362,231.407 146.921,231.022 148.290 C 230.638 149.658,229.907 152.297,229.399 154.154 C 228.890 156.011,228.173 158.570,227.804 159.840 C 227.435 161.111,227.080 162.430,227.015 162.772 C 226.950 163.114,226.665 164.159,226.381 165.093 C 226.098 166.028,225.738 167.347,225.582 168.025 C 225.426 168.703,224.942 170.538,224.505 172.101 C 224.068 173.665,223.426 175.984,223.078 177.255 C 222.730 178.525,222.019 181.084,221.499 182.941 C 219.700 189.365,218.921 192.184,216.317 201.688 C 215.875 203.301,215.250 205.540,214.927 206.664 C 214.605 207.788,214.250 209.107,214.139 209.596 C 213.929 210.513,212.678 215.132,211.876 217.948 C 211.625 218.827,211.160 220.506,210.842 221.679 C 210.321 223.598,209.297 227.286,206.670 236.695 C 205.105 242.302,204.678 243.863,204.091 246.113 C 203.773 247.335,203.174 249.574,202.762 251.088 C 201.604 255.337,201.526 255.693,201.401 257.314 C 200.862 264.333,205.207 271.258,211.807 273.900 C 216.316 275.704,220.251 275.599,225.578 273.531 C 226.952 272.998,228.596 272.371,229.231 272.139 C 229.867 271.907,231.746 271.189,233.407 270.544 C 235.069 269.899,237.028 269.148,237.761 268.876 C 238.494 268.604,239.933 268.042,240.960 267.629 C 241.986 267.215,243.505 266.613,244.336 266.291 C 245.167 265.969,246.766 265.341,247.890 264.894 C 250.675 263.788,254.347 262.377,255.531 261.959 C 256.068 261.769,257.628 261.179,258.996 260.648 C 260.364 260.117,262.683 259.220,264.149 258.656 C 267.635 257.314,272.358 255.463,273.923 254.825 C 275.115 254.339,278.757 252.925,282.719 251.409 C 283.745 251.017,284.984 250.537,285.473 250.344 C 285.962 250.151,287.081 249.730,287.961 249.409 C 289.684 248.780,293.687 247.227,301.377 244.203 C 303.374 243.417,307.949 241.651,312.306 239.983 C 313.185 239.646,314.425 239.163,315.060 238.908 C 315.695 238.654,316.815 238.221,317.548 237.947 C 319.827 237.095,325.155 235.027,331.519 232.525 C 336.189 230.690,337.559 229.330,337.524 226.566 C 337.468 222.043,333.884 220.730,326.522 222.532 C 322.412 223.539,321.329 223.684,320.835 223.294 C 319.963 222.606,323.024 221.144,328.865 219.458 C 334.576 217.810,336.562 215.976,336.562 212.351 C 336.562 207.107,331.846 204.076,326.284 205.744 C 308.358 211.122,304.398 212.025,304.398 210.736 C 304.398 210.280,306.642 209.194,308.752 208.629 C 309.534 208.420,310.733 208.045,311.417 207.795 C 312.101 207.546,313.541 207.042,314.616 206.674 C 319.833 204.892,321.728 201.803,319.443 198.806 C 317.750 196.587,315.277 196.522,308.108 198.507 C 306.312 199.005,303.883 199.676,302.710 199.999 C 301.537 200.322,298.938 201.043,296.935 201.603 C 294.931 202.162,292.532 202.813,291.604 203.049 C 290.675 203.286,288.956 203.746,287.783 204.073 C 285.822 204.618,283.712 205.198,276.410 207.199 C 274.944 207.600,272.506 208.279,270.991 208.706 C 269.476 209.134,267.157 209.776,265.837 210.134 C 261.076 211.423,261.381 211.123,255.816 219.991 C 253.974 222.925,253.169 223.900,252.588 223.900 C 251.743 223.900,251.780 222.906,252.748 219.624 C 253.077 218.507,253.804 215.993,254.363 214.038 C 254.922 212.084,255.683 209.445,256.054 208.174 C 256.425 206.904,257.145 204.385,257.653 202.577 C 258.162 200.769,258.925 198.090,259.349 196.624 C 259.774 195.158,260.175 193.695,260.241 193.374 C 260.306 193.052,260.558 192.172,260.800 191.419 C 261.042 190.665,261.471 189.169,261.753 188.094 C 262.225 186.300,262.563 185.091,264.491 178.321 C 265.151 176.001,266.166 172.492,267.085 169.347 C 267.356 168.418,267.756 167.019,267.974 166.237 C 268.192 165.455,268.606 164.016,268.896 163.039 C 269.185 162.061,269.656 160.382,269.942 159.307 C 270.229 158.232,270.619 156.873,270.809 156.286 C 271.000 155.700,271.403 154.300,271.705 153.176 C 272.977 148.445,274.514 142.949,275.807 138.516 C 276.205 137.148,276.888 134.789,277.323 133.274 C 277.758 131.759,278.507 129.160,278.987 127.499 C 279.467 125.837,280.229 123.159,280.680 121.546 C 281.939 117.038,282.868 113.788,283.369 112.128 C 284.472 108.482,283.902 106.182,281.658 105.217 C 278.470 103.846,276.172 106.291,274.259 113.087 C 273.373 116.234,272.336 117.894,271.526 117.460 C 270.781 117.061,270.923 115.950,272.382 110.795 C 276.799 95.183,276.831 95.050,276.845 92.226 C 276.881 85.170,272.802 79.746,266.015 77.825 C 264.717 77.457,260.443 77.191,259.263 77.404 M201.866 115.974 C 196.362 116.599,193.409 119.983,191.264 128.121 C 189.853 133.475,188.674 137.966,187.929 140.826 C 187.120 143.931,185.770 149.040,185.137 151.399 C 184.940 152.132,184.594 153.492,184.369 154.420 C 183.838 156.608,182.444 161.977,181.993 163.572 C 181.800 164.256,181.548 165.295,181.433 165.882 C 181.318 166.468,181.067 167.468,180.874 168.103 C 180.554 169.160,180.518 169.949,180.445 177.432 C 180.316 190.573,180.227 191.358,178.942 190.670 C 178.516 190.442,178.577 190.676,177.447 184.984 C 176.189 178.644,173.757 168.834,172.956 166.859 C 172.896 166.713,172.826 166.513,172.799 166.415 C 172.773 166.317,172.545 165.659,172.293 164.952 C 172.041 164.246,171.835 163.581,171.835 163.476 C 171.835 163.372,171.685 162.950,171.501 162.540 C 171.318 162.130,170.872 161.035,170.511 160.107 C 169.076 156.421,166.252 151.115,164.608 149.021 C 160.549 143.847,151.847 144.495,148.824 150.197 C 148.551 150.712,147.571 152.612,146.645 154.420 C 145.719 156.228,144.423 158.707,143.764 159.929 C 143.106 161.151,142.035 163.209,141.384 164.503 C 139.473 168.306,138.505 169.702,137.778 169.702 C 136.930 169.702,137.167 168.044,138.514 164.549 C 140.188 160.205,139.977 158.223,137.715 157.034 C 136.484 156.387,135.447 156.434,134.217 157.195 C 133.023 157.933,133.123 157.728,130.696 164.371 C 130.178 165.789,129.459 167.748,129.099 168.725 C 128.738 169.702,128.087 171.502,127.653 172.723 C 127.218 173.945,126.754 175.184,126.620 175.478 C 126.487 175.771,126.209 176.570,126.003 177.255 C 125.796 177.939,125.472 178.898,125.282 179.387 C 125.092 179.876,124.371 181.835,123.679 183.741 C 121.272 190.370,120.800 191.655,120.354 192.803 C 120.107 193.438,119.605 194.798,119.238 195.824 C 118.222 198.666,115.721 205.520,115.153 207.019 C 114.875 207.752,114.530 208.712,114.386 209.151 C 114.242 209.591,113.721 211.071,113.229 212.439 C 111.931 216.047,110.833 219.035,107.878 227.010 C 107.371 228.378,106.685 230.258,106.355 231.186 C 105.799 232.749,105.013 234.925,102.953 240.604 C 102.510 241.826,101.881 243.585,101.555 244.514 C 101.229 245.442,100.547 247.321,100.039 248.689 C 98.790 252.055,97.473 255.639,96.773 257.574 C 96.455 258.454,95.853 260.093,95.436 261.217 C 94.557 263.584,93.646 266.110,92.586 269.125 C 92.173 270.298,91.568 271.977,91.241 272.857 C 90.914 273.736,90.171 275.775,89.590 277.388 C 88.452 280.545,85.944 287.349,84.646 290.804 C 82.594 296.264,82.402 297.517,83.283 299.719 C 84.361 302.410,87.325 304.065,89.877 303.400 C 92.206 302.794,93.600 301.072,97.444 294.057 C 98.562 292.017,99.255 291.418,99.831 291.995 C 100.193 292.356,100.065 293.243,99.491 294.358 C 93.829 305.357,92.654 315.819,96.659 319.566 C 101.787 324.362,108.209 319.725,113.852 307.152 C 115.354 303.806,116.947 299.415,118.090 295.471 C 119.007 292.307,119.671 291.160,120.514 291.279 C 121.240 291.382,120.248 296.641,118.333 302.842 L 117.744 304.752 118.106 305.241 C 119.826 307.562,123.036 307.292,125.010 304.659 C 126.518 302.648,127.194 301.009,129.441 293.914 C 130.292 291.226,131.817 286.468,132.831 283.341 C 134.937 276.843,137.591 268.563,138.613 265.304 C 140.379 259.671,145.569 243.538,146.873 239.627 C 147.825 236.771,148.694 233.895,149.181 231.986 C 150.637 226.271,152.639 226.880,152.645 233.040 C 152.649 236.618,153.339 247.412,153.816 251.355 C 156.076 270.024,165.914 278.993,178.666 274.007 C 184.887 271.575,187.977 267.546,190.504 258.576 C 191.182 256.168,191.987 253.319,192.294 252.243 C 192.600 251.168,193.071 249.449,193.340 248.423 C 193.608 247.397,194.029 245.837,194.274 244.958 C 194.519 244.078,195.137 241.799,195.648 239.893 C 196.158 237.988,196.760 235.789,196.986 235.007 C 197.211 234.225,197.649 232.625,197.958 231.453 C 198.268 230.280,198.786 228.401,199.109 227.277 C 199.431 226.153,200.111 223.714,200.619 221.857 C 201.126 220.000,201.927 217.081,202.399 215.371 C 204.043 209.404,204.256 208.616,205.953 202.221 C 206.225 201.195,206.623 199.716,206.836 198.934 C 207.049 198.152,207.452 196.633,207.731 195.558 C 208.010 194.482,208.518 192.603,208.860 191.382 C 209.615 188.683,210.756 184.525,212.080 179.653 C 213.018 176.199,213.310 175.133,214.996 168.992 C 215.385 167.574,215.905 165.615,216.151 164.638 C 216.398 163.661,216.966 161.502,217.415 159.840 C 217.863 158.179,218.618 155.340,219.093 153.532 C 219.567 151.724,220.157 149.525,220.404 148.645 C 220.651 147.765,221.269 145.526,221.776 143.669 C 222.283 141.813,223.006 139.174,223.381 137.805 C 225.060 131.689,225.193 131.087,225.186 129.631 C 225.157 123.135,218.185 122.043,215.634 128.135 C 215.371 128.762,215.005 129.611,214.820 130.020 C 214.635 130.429,214.372 131.189,214.236 131.708 C 213.018 136.354,212.626 137.241,211.826 137.147 C 211.200 137.075,211.144 135.805,211.642 132.990 C 213.543 122.234,209.452 115.113,201.866 115.974 " stroke="none" fill="#6236e4" fill-rule="evenodd"></path></g></svg>